<?xml version="1.0" encoding="utf-8"?><svg xmlns="http://www.w3.org/2000/svg" xmlns:xlink="http://www.w3.org/1999/xlink"><symbol viewBox="2 -6 688 512" id="adv-item1"><path fill="#D0E86D" d="M288.3 482.4c0-16.5 1.4-48.7 8.7-81.7 8-35.9 24-81.7 55.4-131.5 16.1 6.8 49.2 18.3 89.1 18.3 25.4 0 53.6-4.6 81.8-18.3C598.2 233.4 649.4 147 675.1 13c.8-4-.3-8.2-2.7-11.3-2.5-3.3-6.3-5.2-10.2-5.5-152.7-10.5-255.5 18-305.6 84.8-47.7 63.7-31.6 140.9-24.3 166.8-24.8 38.1-41.1 74.3-51.8 106.3-10.6-29.5-27.7-51.6-46.9-68.1 0-19-3.8-64.4-40-97.2-37.9-34.6-98.5-44.1-180.2-28-4 .8-7.5 3.3-9.5 6.7-2 3.5-2.5 7.8-1.2 11.6 28.8 88.5 68.9 140.1 118.8 153.3 8.9 2.3 17.5 3.3 25.6 3.3 32.2 0 58.7-15.3 72-24.7 29.1 27.4 43.9 64.7 43.9 111.2 0 1.1.1 2 .4 3.1-3.8 26.9-4.4 49.6-3.5 66.3 1.1 21.4 28.4 14.4 28.4-9.2zm91.1-384.3c4.6-6.1 9.8-11.9 15.4-17.2l-40.1 76 6.8 50.7c-2.3 3-4.6 5.9-6.8 8.7-4.7-30.4-5.3-78.3 24.7-118.2zM35.2 185.9c1.8-.3 3.5-.5 5.2-.8l35.1 79.7c-15-20-28.5-46.3-40.3-78.9z"/><path fill="#009D37" d="M303.2 482.4c0-16.4 1.4-48.7 8.7-81.7 8.2-35.9 24.1-81.7 55.4-131.5 16.1 6.8 49.2 18.3 89.1 18.3 25.4 0 53.6-4.6 81.8-18.3C613.1 233.4 664.2 147 690 13c.8-4-.3-8.2-2.7-11.3-2.5-3.3-6.3-5.2-10.2-5.5-152.7-10.7-255.4 18-305.6 84.8-47.7 63.7-31.6 140.9-24.3 166.8-24.8 38.1-41.1 74.3-51.8 106.3-10.6-29.5-27.7-51.6-46.9-68.1 0-19-3.8-64.4-40-97.2-37.9-34.6-98.5-44.1-180.2-28-4 .8-7.5 3.3-9.5 6.7-2 3.5-2.5 7.8-1.2 11.6 28.8 88.5 68.9 140.1 118.8 153.3 8.9 2.3 17.5 3.3 25.6 3.3 32.2 0 58.7-15.3 72-24.7 29.1 27.4 43.9 64.7 43.9 111.2 0 1.1.1 2 .4 3.1-3.8 26.9-3.4 46.9-3.5 66.3-.1 21.9 28.4 18.8 28.4-9.2zm91.1-384.3c42.3-56.3 131.2-81.4 264.6-74.5-24.7 115.5-69.3 189.6-132.7 220.1-57.6 27.7-116.8 11.3-142.7 1.5 22.6-31.5 51.6-64 88.7-96.2 5.9-5.2 6.5-14 1.4-20.1-5.2-5.9-14-6.5-20.1-1.4-34.1 29.6-61.8 59.6-84 88.9-4.7-30.5-5.2-78.4 24.8-118.3zM134.9 266c.4 0 36.3 3.5 72.2 24.7 1.1.7 2.2 1.4 3.4 2.2-14.7 8.9-39.6 19.4-66.6 12.1-36.9-9.8-69.2-50.9-93.9-119.2 63.8-10.1 110.6-2.2 139.3 23.7 18.4 16.6 25.9 38.2 28.9 55.1-40.6-22.9-79.9-27-80.7-27-7.8-.7-14.7 5-15.4 12.8-.9 7.9 5 14.9 12.8 15.6z"/></symbol><symbol viewBox="6 -6 512 512" id="adv-item2"><g fill="#D0E86D"><path d="M428.5 252.4c-1.2 90.6-75.4 165.1-168.4 164.1-91.4-1-166-76-164.5-169.3C97 156.4 171.3 83.3 262.2 83.5c91.8-.1 167.6 75.1 166.3 168.9zm77.5 3.1C503.2 387.6 395.2 494 262 494c-134.5.1-244.1-109-244-244.3C18.1 114.2 129.2 3.3 267.2 6.1 399.8 8.7 508.9 118.2 506 255.5zm-7.2-5.5C499 121 395.5 16 267.5 13.2c-134.4-3-242.2 105.4-242.3 236.5-.1 129.6 103.8 234.7 232 237.2 134.1 2.6 242-105.8 241.6-236.9z"/><path d="M124.6 371.3c1.4 1.4 1.4 2.3.1 3.7-6 6.6-11.9 13.3-17.9 19.9-3.2 3.6-3.3 3.6-6.5-.1-23.2-26.1-39.4-56-48.4-89.8-.6-2.1 0-2.5 2-2.5 5.1.1 10.1 0 15.2 0s10.1.1 15.2 0c1.6 0 2.2.6 2.7 2 6.7 21.8 17.4 41.6 31.6 59.5 1.9 2.6 3.8 5 6 7.3zm274.5 3.8c6.7 7 13.4 13.9 20 21 1.5 1.6 2.1 1.6 3.6 0 12.6-14 23.4-29.3 32.1-46 7.5-14.3 13.2-29.3 17.4-44.9.7-2.7.7-2.7-2.1-2.7h-14.7c-5 0-10 .1-15-.1-2-.1-2.7.5-3.3 2.4-7.8 25-20.6 47.2-38 66.8-1.4 1.6-1.1 2.4 0 3.5z"/></g><path fill="#D0E86D" d="M280.5 66.5c1.9-11.2 3.8-22.3 5.6-33.5.2-1.2.3-1.8 1.9-1.6 8.1 1.4 16.1 2.7 24.2 4 .2 0 .6 0 .7.1 1.3 2.1-.3 4.1-.3 6.1 0 1.1-.7 1.3-1.3 1.1-5.4-.9-10.5-1.7-15.5-2.6-1.5-.3-2.2 0-2.3 1.6-.1 2.2-1.8 4.9-.7 6.5 1.1 1.6 4.1 1 6.3 1.5 2.6.5 5.2.9 7.8 1.3 1.2.2 1.5.6 1.3 1.9-.9 5-.8 5-5.8 4.3-3-.5-6-.9-9-1.5-1.6-.3-2.4-.2-2.6 1.8-.4 4-1.3 7.9-1.9 11.9-.2 1.4-.6 2.2-2.3 1.6-1-.4-2.2-.4-3.3-.6-3.4-.6-3.4-.6-2.8-3.9zM138 412.7c-3-1.7-5.5-4.2-8.2-6.3-1.2-1-1.8-1.1-2.8.2-2.1 2.8-4.5 5.5-6.6 8.3-.7.9-1.2 1-2.1.2-1.5-1.3-3.1-2.6-4.7-3.8-.8-.6-.8-1.1-.2-1.9 7.7-9.4 15.4-18.8 23-28.3.7-.9 1.2-.9 2.1-.2l12.9 10.5c3.1 2.6 5.4 5.8 5.3 11 0 8.9-10.3 14.9-18.7 10.3zm10.6-12.1c0-1.4-.6-2.5-1.4-3.5-1.9-2.2-4.4-3.7-6.5-5.7-.9-.8-1.2 0-1.7.5-1.8 2.2-3.7 4.5-5.5 6.7-.5.6-1 1.1-.1 1.8 2.4 1.8 4.4 4 7.1 5.3 3.6 1.9 8.1-1 8.1-5.1zm32.9 33.2c3 3.6 2 7.2.6 10.7-1.2 2.8-2.6 5.5-2.8 8.8-2.3-1.2-4.5-2.3-6.7-3.3-1-.5-.9-1.2-.6-2l2.4-6.6c1.9-5.1 1.1-7.1-3.6-9.5-2.1-1.1-4.7-3.3-6.4-2.8-2 .6-2.5 4-3.7 6.2-.2.3-.3.6-.4.9-3.3 6.6-3.3 6.5-9.7 2.7-1-.6-.9-1.1-.5-1.9 5.5-10.8 11-21.6 16.4-32.5.7-1.4 1.3-.9 2.2-.4 5.8 3 11.6 5.8 17.4 8.9 4.8 2.5 7.2 7.1 6.3 11.7-1.3 5.5-4.7 8.5-10.9 9.1zm2.1-11.8c-.1-2-1.3-3.3-2.9-4.1-2.6-1.4-5.3-2.7-7.9-4.1-1-.5-1.3-.2-1.8.7-1.2 2.5-2.4 4.9-3.7 7.3-.5.9-.4 1.3.6 1.8 2.6 1.2 5.1 2.6 7.8 3.8 4 1.8 7.9-.9 7.9-5.4zm40.2 41.8c.1.8.3 1.6-.2 2.5-2.4-.7-4.9-1.4-7.4-2-.7-.2-1.1-.5-1-1.3v-.5c-.2-2.5.6-5.7-1-7.4-1.5-1.5-4.6-1.6-7-2.2-2.2-.6-4.6-2-6.4-1.4-1.7.6-2.8 3.2-3.8 5.1-1 1.8-2.2 2.2-4 1.5-1.9-.7-3.8-1.1-6-1.7 4.2-5.8 8.2-11.4 12.3-17 3.7-5.2 7.5-10.3 11.1-15.5.8-1.1 1.5-1.6 3-1.1 2.1.8 4.8.7 6.3 2 1.6 1.4.8 4.3 1.1 6.5 1 10.8 2 21.7 3 32.5zm-9.6-15.9c-.4-5.1-.7-9.7-1.1-14.9-2.8 4-5.2 7.6-7.7 11.1-.5.7-.8 1.3.4 1.5 2.7.8 5.4 1.5 8.4 2.3zm20.5-379.1c-2.5-10-4.9-20.1-7.4-30.2-.5-2-.2-4.9-1.9-5.6-1.6-.7-4 .7-6 1.1-1.1.2-1.5.7-1.2 2 .9 3.2 1.6 6.5 2.4 9.8 1 4.3 2.1 8.6 3.1 12.9-1-.3-1.6-.8-2.2-1.3-5.1-5-10.4-9.6-15.1-15-3.3-3.8-6.5-4.5-10.8-2.7-.1.1-.3.1-.5.1-1.3.2-1.6.7-1.2 2.1 2.5 10 4.9 20.1 7.4 30.2.5 2 .3 5 1.8 5.7 1.4.7 3.9-.6 6-1 1.2-.2 1.8-.6 1.3-2.1-.8-2.6-1.3-5.3-2-7.9-1.2-5-2.4-9.9-3.6-14.9.9 0 1.2.5 1.6.9 5.1 5 10.5 9.8 15.2 15.2 3.4 3.9 6.7 5.2 11.3 3 .1 0 .2 0 .2-.1 1.7-.1 2-.7 1.6-2.2zm33.5 374.5c2.1.5 2.5-.5 2-2.3-.5-2.2-1.4-4.3-2.8-6.1-5.6-7.3-18-8.6-25.7-2.7-7.2 5.5-9.8 17.4-5.8 26.4 3.3 7.3 10.2 11.3 19 10.8 6.8-.4 12.4-4.7 14.5-11.5 1.2-3.7 1.2-3.7-2.8-3.9-.9 0-1.8 0-2.7-.1-1.5-.2-2.3.2-2.7 1.8-.9 3.4-3.1 5.7-6.6 6.3-3.6.6-6.9-.4-9.3-3.4-4.1-5.1-3.4-15.6 1.2-20.1 4.5-4.4 12.5-3.1 14.7 2.7.7 1.7 1.6 2.1 3.1 2.1h2.2v.1c.8-.1 1.3-.1 1.7-.1zM163.5 56c-.2-1.8.2-2.8 2-3.7 5.9-2.7 5.8-2.8 10.5 1.8 8.4 8.1 16.8 16.2 25.5 24.5-2.5 1.2-4.7 2.1-6.8 3.3-1.1.6-1.7.3-2.5-.5-1.4-1.5-2.8-2.9-4.2-4.3-.7-.8-1.4-1-2.4-.5-3.4 1.7-6.8 3.3-10.2 4.9-1.1.5-1.5 1.2-1.3 2.4.3 2.1.4 4.2.6 6.2.1.7.1 1.3-.6 1.6-2.3 1.1-4.6 2.2-7.2 3.4-.5-5.8-1-11.3-1.4-16.8-.7-7.4-1.3-14.8-2-22.3zm8 4.9c.5 4.9 1 9.5 1.6 14.4 3.1-1.5 5.9-2.8 9-4.3-3.6-3.5-7-6.7-10.6-10.1zM83.6 219.3c3.1 13.8-7.7 25.6-21.8 23.8-3-.4-6-1.1-8.7-2.5-6.6-3.4-10.1-9.1-10.1-16.5 0-12.8 10.1-21.2 23-19.2 9.4 1.3 15.9 6.6 17.6 14.4zm-12.5-4c-4.4-2.2-9-2.8-13.8-1.4-4.1 1.2-6.4 4.2-6.9 8.4-.5 4.3 1.2 7.5 4.9 9.7 2.9 1.7 6.1 2.4 10 2.6.8-.1 2-.2 3.3-.5 4.5-1 7.3-3.9 7.9-8.2.6-4.7-1.2-8.5-5.4-10.6zm23.4-39.4c.3 1.4.4 2.7.4 4.1-.5 7.9-3.4 14.5-10.9 17.9-8.4 3.8-16.3 1.7-23.2-3.8-12.7-10.1-6-27.3 3.4-31.8 11.4-5.5 27.3 1.5 30.3 13.6zm-10.9-2.6c-3.5-2.9-7.5-4.3-12-4.4-4.5-.1-8 2.3-9.5 6.4-1.6 4.3-.7 8.3 2.9 11.3 3.4 2.9 7.4 4.4 11.3 4.6 5.4.1 8.8-2.3 10.4-6.6 1.6-4.4.6-8.3-3.1-11.3zM77 255.6c4.1-1.2 4-1.2 3.8-4.8-.1-1.7-.7-2-2.3-1.8-5.8.6-11.7 1.1-17.6 1.5-1.3.1-1.6.7-1.5 1.9.4 4.2.8 8.5 1.1 12.7.1 1.7.7 2.1 2.4 1.9 4.4-.5 4.4-.4 3.9-4.8-.1-.6-.1-1.1-.1-1.7-.2-2.6.2-2.9 2.8-2.1 3.4 1 5.2 3.3 5.8 6.7.8 4.2-.1 8-3.9 10.4-5.2 3.3-10.9 3.8-16.6 1.4-6-2.6-7.8-11.5-2.8-14.9 2.9-1.9 3.2-3.8 2.6-6.6-.1-.5-.1-1.1-.1-1.7 0-1.5-.4-2-2-1.5-2.1.7-4 1.7-5.6 3.2-6.2 5.8-6.8 17.1-1.1 24.3 5.1 6.4 12.1 8 19.7 7s13.6-4.6 16.3-12.2c2.6-7.1 1.8-13.6-4.8-18.9zM273.1 44.3c0-3.1.1-6.1 0-9.2-.1-5-.2-5-5.3-5-3.8 0-3.5-.9-3.4 3.7.1 7.3.5 14.6.5 21.9 0 5.1-2.5 7.2-7.9 7.2-5.2 0-7.8-2.2-8-7.2-.2-6.3-.4-12.5-.5-18.8-.1-6.5 0-6.5-6.6-6.4-1.8 0-2.3.6-2.3 2.4.3 7.7.4 15.4.6 23.1.3 7.8 4.7 12.9 12.4 13.9 3.1.4 6.2.4 9.4-.3 7.3-1.6 11.4-6.6 11.5-14V44c-.1.3-.3.3-.4.3zM110.9 151.1c-2.8 4.4-5.7 8.7-8.5 13.1-.8 1.2-1.3 1.1-2.4.4-9.9-6.5-19.9-13-29.9-19.5-1.1-.7-1.4-1.2-.6-2.4 3-4.5 5.8-9 8.9-13.5 3.3-4.8 7.8-7.6 15.6-7.5 8.4 0 19.1 9.3 19.8 18.8.3 4-.9 7.4-2.9 10.6zm-5.1-8.9c0-1.3-.5-3-1.6-4.4-2.8-3.8-6.5-6.1-11.1-7.2-3-.7-5.7.2-7.9 2.4-2 1.9-3.1 4.3-4.7 6.4-.9 1.2-.7 1.8.6 2.6 5 3.1 9.8 6.4 14.7 9.6 1.3.9 2.8 2.5 4 2.3 1.4-.2 2-2.5 2.9-3.9 1.6-2.2 3.1-4.4 3.1-7.8zm23-25c1.3 1.6 2.4 4.5 4 4.4 1.8-.1 3.4-2.4 5.2-3.7 1.1-.8 1-1.3.2-2.2-1.4-1.6-2.7-3.4-4.1-5.1-3.6-4.5-7.2-9-10.8-13.6 1.2-.3 1.7.4 2.4.8 5.8 3.6 11.6 7.2 17.4 10.9 3.6 2.3 3.5 2.2 7-.4 1.6-1.2 1.7-2.2 1.1-3.9-2.8-7.6-5.5-15.3-8.2-23 1.2-.3 1.4.6 1.9 1.2 3.5 4.4 7.1 8.8 10.6 13.2 1.3 1.6 2.7 4.5 4 4.5 1.7 0 3.4-2.4 5.2-3.6 1.1-.7 1-1.3.3-2.3-7.5-9.3-15-18.7-22.5-28.1-.9-1.1-1.5-1-2.5-.2-2.2 1.9-4.5 3.7-6.8 5.4-1.1.8-1.2 1.6-.7 2.8 2.8 7.2 5.6 14.4 8.3 21.6.3.8 1 1.6.6 2.7-7.3-4.6-14.5-9.2-21.8-13.9-1.1-.7-1.8-.8-2.9.1-2.1 1.9-4.3 3.6-6.6 5.3-1.4 1-1.4 1.6-.4 2.9 6.2 8.1 12.6 16.1 19.1 24.2zm343.8 77.5c.7-.2 2 0 1.6-1.9-.4-1.4-1.1-3.3-1.4-5.1s-1.2-1.8-2.6-1.4c-10.1 2.9-20.2 5.8-30.3 8.6-5.3 1.5-5.3 1.4-3.9 6.6.2.6.4 1.2.5 1.9.2 1.2.7 1.4 1.8 1 2-.6 4-1.2 6-1.7 9.4-2.7 18.8-5.3 28.3-8zm-31.1-8.1c-2.7 1.4-5.5 2.7-7.7 5.1-1.1-2.3-2-4.5-3.1-6.7-.5-1.1-.1-1.7.7-2.2 2.1-1.3 4.1-2.5 6.2-3.7 4.4-2.7 5.1-4.7 3-9.4-.8-1.7-1.6-3.3-2.2-5.1s-1.5-1.8-3-1.1c-3.3 1.6-6.8 3-10.1 4.6-1.5.8-2.1.3-2.6-1.1-.7-2.1-3-4.3-2.2-6 .7-1.5 3.6-2 5.6-2.9 9.2-4.2 18.5-8.3 27.7-12.5 1.5-.7 2.1-.6 2.8 1 2.5 5.8 5.2 11.6 7.8 17.4 3.3 7.4-.3 14.3-8.2 16-2.7.6-4.1.2-8.4-2.1.1 4.7-2.9 6.9-6.3 8.7zm2-25.9c1.8 3.5 2.6 7.6 5.5 10.6 1.6 1.7 3.7 1.2 5.6.4s3.2-2.2 3.3-4.3c0-.3 0-.5-.1-.7-1-3.6-2.9-6.8-4.3-10.2-.4-1-1.1-.4-1.6-.2-2.5 1.1-5 2.2-7.4 3.4-.6.2-1.4.3-1 1zm-49-77.2c2 1.7 3.8 3.7 5.9 5.3 1.4 1.1 1.5 1.8.2 3.1-5.3 5.5-10.4 11.2-15.5 16.8-1.5 1.6-4 3.2-4 4.9 0 1.9 3 3 4.4 4.7 1.2 1.4 1.9.9 2.9-.2 6.2-6.8 12.5-13.6 18.7-20.5 1.2-1.3 1.8-1.2 2.9-.1 1.2 1.3 2.6 2.4 3.9 3.6 3.2 2.9 3.2 2.9 6.1-.3.6-.7 1.3-1.4 2.2-2.5-.6-.4-1.1-.6-1.5-1l-18.3-16.8c-1.3-1.2-2.6-3.6-4.1-3.3-1.6.3-2.7 2.6-4 3.9-.8 1.1-.6 1.7.2 2.4zm75.8 167.6c-2.3-1-4.7-1.6-7.2-1.8-7.9-.6-14.9 1.4-19.2 8.4-4.1 6.6-4.7 13.4.8 19.7-.4.6-.9.6-1.4.5-2.2-.3-2.9.8-2.8 2.8 0 .5 0 1-.1 1.4-.2 1.2.1 1.7 1.4 1.8 6 .5 12 1 18 1.7 1.4.1 1.7-.4 1.7-1.6.3-3.8.7-7.7 1-11.5.3-3.4.2-3.3-3.3-3.7-2.2-.3-3.4.1-3.2 2.7.1 1.2-.3 2.4-.2 3.6.1 2.1-.8 2.2-2.5 1.5-3.1-1.3-4.9-3.6-5.2-7-.3-4.2.9-7.8 4.8-10.1 5-2.9 13.9-2 18.2 1.7 4.7 4.1 4.4 12.5-.9 14.7-2.9 1.2-3.6 2.8-3.5 5.4 0 .7-.1 1.4-.2 2.2-.2 1.4.1 2.1 1.8 1.8 2.4-.4 4.7-1.1 6.7-2.6 5.5-4.1 7.3-9.9 6.8-16.4-.7-7.2-4.8-12.3-11.5-15.2zm-26.8-114.4c1.6-1.2 4.1-2.2 4.5-3.7.4-1.6-2-3.2-3.1-4.8-.1-.2-.3-.4-.4-.6-.8-1.5-1.6-1.3-2.8-.4-5.1 3.8-10.2 7.6-15.3 11.3-1.7 1.3-3.4 2.7-5.4 3.6-1.8.8-3.6 1-5.3 0-6.4-3.5-7-10.3-1.2-14.6 4.6-3.5 9.3-6.9 14-10.3 1.8-1.3 4.9-2.3 4.9-4.2 0-1.9-2.4-3.8-3.7-5.7-.7-1-1.2-1-2.1-.3-6.4 4.8-12.8 9.4-19.2 14.3-2.8 2.1-5 4.8-5.8 8.3-1.7 7.6 5.2 18.5 13.3 20.9 1.1.3 2.2.4 3.3.5 3.7 0 6.9-1.5 9.8-3.6 4.8-3.5 9.7-7.1 14.5-10.7zm-1.2 82.3c4.3-.6 8.6-1.2 12.9-1.7 3.3-.4 6.7-.8 10-1.2-6 5.4-12 10.3-18.1 15.2-5.4 4.4-5.3 4.4-4 11.2.2 1.2.6 1.4 1.7 1.2 2.7-.4 5.4-.7 8.1-1 9.2-1.1 18.3-2.3 27.5-3.4 1.2-.1 1.6-.5 1.5-1.8-.3-6.5-.3-6.5-6.6-5.8-.6.1-1.1.2-1.7.2-5.9.7-11.7 1.5-17.6 2.2 0-.2-.1-.3-.1-.5 6.1-5 12.2-9.9 18.3-14.9 5-4.1 4.9-4.1 4-10.5-.2-1.5-.6-2-2.2-1.7-10.8 1.4-21.5 2.7-32.3 4.1-4.6.6-4.6.6-4 5.4 0 .4.1.8.1 1.2 0 1.8.9 2.1 2.5 1.8zm-35.5 185.6c-4.5 3.8-9.1 7.5-13.6 11.3-1 .8-1.5.8-2.3-.2-1.3-1.7-2.6-3.3-4-4.8-.9-1-.7-1.5.3-2.3 3.3-2.6 6.5-5.3 9.7-8 3.7-3.1 3.7-3.1.5-6.9-.9-1.1-1.5-1.3-2.6-.3-3.3 2.9-6.7 5.6-10 8.3-3.1 2.6-3.1 2.6-5.6-.4-.4-.5-.8-1-1.3-1.5-1.2-1.2-1.5-2.1.2-3.3 3.4-2.6 6.6-5.4 9.9-8.1 4.5-3.7 4.6-3.7.6-8.1l-.2-.2c-.6-.9-1.2-.8-1.9-.1-6.8 5.7-13.6 11.3-20.5 16.9-.8.6-.9 1.1-.2 1.9 7.8 9.4 15.5 18.7 23.2 28.1.3.3.5.9 1.2.8.4-.3.8-.7 1.2-1 5.8-4.8 11.5-9.5 17.3-14.3 4.2-3.5 4.2-3.4.6-7.7-.8-1-1.4-1.1-2.5-.1zM316.9 70.3c-1.2 1.6-2.5 3.1-3.7 4.7-.7.9-1.3 1.1-2.4.6-1.7-.7-3.4-1.4-5.2-1.8-1.7-.4-1.3-1-.5-2 6.8-8 13.5-16 20.2-24 .4-.4.7-.9 1.1-1.3 4.7-5.7 4.7-5.7 11.7-2.8 1 .4 1.2 1 1.2 2V65h.7v19.3c0 1.2-.1 1.8-1.4 1.1-.1 0-.1-.1-.2-.1-2.2-.8-5-1-6.4-2.5-1.5-1.6-.3-4.5-.3-6.8 0-1.7-.4-2.5-2.1-3-3.4-1-6.7-2.2-10-3.5-1.3-.4-2-.3-2.7.8zm5.4-6.7c3.2 1.1 6.2 2.2 9.2 3.2V52.2c-3.2 3.9-6.1 7.5-9.2 11.4zM357.9 98c7 3.3 14.2 1.8 19.6-4 1.2-1.3 1.6-2.1-.3-3.1-1.3-.6-2.5-1.4-3.7-2.3-1.2-.8-1.9-.8-3 .3-2.2 2.4-5 3.6-8.3 2.6-3.6-1.1-6.2-3.4-7.1-7.2-1.5-6.4 4.6-16.2 10.9-17.6 6.1-1.4 12.1 3.4 11.4 9.6-.2 2 .5 2.7 1.9 3.4.4.2.8.5 1.2.7 4.1 2.5 4.6 2.2 5.1-2.7 0-.2 0-.5.1-.7.5-9.7-8.3-18.3-19.1-18.3-.9.1-2.3.2-3.6.6-8.4 2.1-15.1 10.1-16.3 19.5-1 8 3.5 15.6 11.2 19.2zm-51.6 326.9c-.9.1-1.3.1-1.7.2l-24 3.9c-5.6.9-5.6.9-4.4 6.6.2 1.2.6 1.6 1.9 1.3 2.4-.5 4.8-.7 7.1-1.3 2.2-.5 3-.1 3.3 2.3 1.2 8.5 2.7 17 4 25.5.5 3.2.5 3.2 3.5 2.7 1.2-.2 2.4-.5 3.6-.5 1.7-.1 2.1-.6 1.8-2.4-1.6-9.1-3-18.2-4.5-27.3-.2-1.4-.1-2.2 1.6-2.3 2.7-.2 5.4-.9 8.1-1.3 1.4-.2 1.6-1 1.2-2-.6-1.8.3-4.2-1.5-5.4zm15.5-3.4c-.2-.6-.1-1.6-1.2-1.6-2 .7-4.1 1.4-6.2 2-1.3.3-1.4.9-1.1 2.1 3.7 11.4 7.4 22.9 11 34.4.4 1.1.9 1.3 1.9.9.6-.3 1.2-.4 1.8-.6 5-1.6 5-1.6 3.4-6.7-3-10.2-6.3-20.4-9.6-30.5zm47.4 2.6c-1.4.8-2.8 1.6-4.3 2.2s-1.8 1.3-1.4 2.9c1 3.7.1 6.9-3.2 9.1-3.5 2.4-7.3 2.9-10.8.4-5.2-3.6-7.8-8.8-7.7-15.1.1-6.9 8.4-11.6 13.8-7.6 2.4 1.7 3.8 1.4 5.8.1.8-.5 1.7-.9 2.6-1.3 1.2-.5 1.4-1 .5-2.1-2-2.3-4.3-4.1-7.2-5.1-11.3-3.7-23.9 5.8-23.9 17.9 0 3.2.6 6 1.9 9.1 4.3 10 13.2 15 22.7 12.6 10.7-2.6 16.4-12.4 13-22.3-.2-1.1-.6-1.6-1.8-.8z"/><path fill="#009D37" d="M260.1 306.3c.1 5.1.1 5.1-4.8 5.1-1.8 0-2.1.6-2.1 2.2.1 11.6 0 23.2.1 34.7 0 1.8-.4 2.5-2.3 2.5-5.3-.1-5.3 0-5.3-5.3V331c0-5.9-.1-11.7 0-17.6 0-1.6-.4-2.3-2-2h-.5c-4.7 0-4.6 0-4.7-4.6 0-1.8.4-2.3 2.3-2.3 5.9.1 11.7.1 17.6 0 1.4.1 1.7.5 1.7 1.8zm-63.8-34.4c.8 2.3 1.6 4.3 2.2 6.2.3 1.1.9 1.5 2.1 1.5 2.4-.1 4.8-.1 7.2 0 1.4.1 1.8-.4 1.8-1.8-.1-3.2 0-6.4 0-9.7v-46.9c0-1.2.4-2.4-1.7-2.3-8.4.1-16.7.1-25.1 0-1.1 0-1.5.3-1.5 1.5.1 3.9.1 7.7 0 11.6 0 1.4.5 1.6 1.7 1.5 1.9-.1 3.9.1 5.8-.1 1.6-.1 2 .4 2 2-.1 6.4 0 12.9 0 19.3 0 6.2-3.6 9.8-9.7 9.9-6 0-9.8-3.7-9.8-9.8v-71.5c0-6 3.8-9.8 9.6-9.8 6 0 9.6 3.7 9.6 9.9 0 4.9.1 9.8 0 14.7 0 1.6.5 2 2 2 4.8-.1 9.7-.1 14.5 0 1.4 0 2-.3 1.9-1.8-.1-4.9.1-9.8-.1-14.7-.2-6.9-1.9-13.4-6.6-18.7-5.9-6.7-13.6-8.9-22.3-8.8-16.3.2-28.2 12-28.2 28.2v69.6c0 3.2.3 6.4 1.3 9.5 2.9 9.7 9.1 16 19.2 17.8 9.5 1.8 18.2.1 24.1-9.3zm75 55.8v-17.8c0-5.2 0-5.1-5.2-5.2-1.8 0-2.2.5-2.2 2.3.1 12.9 0 25.7 0 38.6 0 5.5 0 5.5 5.6 5.4 1.6 0 1.9-.5 1.8-2-.1-7.2 0-14.3 0-21.3zm-34.9 20.7c.8 1.4.8 2.5-1.5 2.5-5.5 0-6.8-1.2-6.8-6.7V335c0-3.1-3-4.9-5.8-3.7-.9.4-.6 1.2-.6 1.9 0 5.1-.1 10.3 0 15.4 0 1.7-.4 2.2-2.1 2.2-5.5 0-5.5.1-5.5-5.3 0-12.7.1-25.4-.1-38.1 0-2.4.7-3 2.9-2.8 3 .2 6 0 8.9.1 5.9.1 9.1 3.2 9.2 9.1v6.8c0 4.4-.3 5.1-3.7 8 2.9 1.5 4 3.8 3.9 6.8-.1 2.6 0 5.1 0 7.7.1 1.9.3 3.6 1.2 5.3zm-8.5-30.2c.1 0 .1 0 0 0 0-1.8.1-3.6-.2-5.3-.6-2.7-3-1.8-4.8-1.9s-1 1.5-1.1 2.3c-.1 3 0 5.9 0 8.9 0 3.7 0 3.6 3.6 3.2 2.2-.2 2.4-1.8 2.5-3.4.1-1.2 0-2.5 0-3.8zm55.9-125.7c.1 0 .2 0 .3.1v2.7c0 27.3 0 54.6-.1 81.9 0 2 .5 2.6 2.5 2.5 4.4-.2 8.9-.2 13.3 0 2 .1 2.5-.5 2.5-2.5-.1-16.7 0-33.3 0-50v-66.4c0-1.9-.5-2.4-2.4-2.4-7.1.1-14.2.1-21.3 0-1.8 0-2.3.6-2.6 2.2-1.1 6.8-2.3 13.5-3.4 20.2-2.5 15.1-5 30.3-7.5 45.5-.8 5.1-1.6 10.1-2.3 15.2h-.3c-1-6.9-1.8-13.9-3-20.8-3.4-20.2-6.9-40.4-10.3-60.6-.3-1.5-1-1.7-2.3-1.7-7.3 0-14.7.1-22 0-2 0-2.3.7-2.3 2.4.1 11 0 22.1 0 33.1v83.6c0 1.8.4 2.3 2.2 2.3 4.2-.2 8.4-.2 12.6 0 2.2.1 2.6-.6 2.6-2.7-.1-26.7-.1-53.5-.1-80.2v-2.7c.7.3.6.8.6 1.1 2 14.3 4.3 28.6 6.7 42.9 2.3 13.2 4.4 26.5 6.6 39.7.2 1.2.5 1.8 1.9 1.8 3.9-.1 7.7-.1 11.6 0 1.2 0 1.6-.4 1.8-1.6.9-5.7 2-11.4 3-17.1 3.2-18.7 6.8-37.3 9.5-56.1.9-4.2 1.6-8.3 2.2-12.4zM180.9 321.1c1.8 0 3.9.4 5.4-.3 1-.5.2-2.7.3-4.1v-2.2c-.1-6.6-3.9-10.7-10.4-10.8-6.2-.1-11.2 4.3-11.3 10.4-.2 9-.2 18 0 27 .1 5.9 4.6 10.1 10.4 10.3 6.6.2 10.6-3 11.2-9 .2-1.6.1-3.2.1-4.8 0-3.4 0-3.4-3.4-3.4-3.3 0-3.3 0-3.3 3.3v3.1c0 2.8-1.1 4.1-3.6 4.1-2.5.1-3.8-1.3-3.8-4.2-.1-4.3 0-8.5 0-12.8 0-4.6-.1-9.2 0-13.8 0-2.3 1.6-3.6 3.7-3.5 2.2 0 3.5 1.4 3.6 3.7.1 1.8 0 3.7 0 5.6.1.8.1 1.4 1.1 1.4zm27 22.7c-2.6.1-5.2 0-7.7.1-1.2 0-1.5-.3-1.5-1.5.1-2.9 0-5.8 0-8.7 0-3.7 0-3.7 3.6-3.7 4.2 0 4.1 0 4.1-4.2 0-1.3-.1-2.1-1.8-2-1.9.1-4.4.9-5.6-.3-1.3-1.3-.4-3.8-.4-5.8 0-2.1-.9-4.8.4-6 1.3-1.3 4-.3 6-.4 4.8-.1 4.7 0 4.7-4.8 0-1.4-.2-2-1.8-1.9-4.9.1-9.8.1-14.7 0-1.6 0-2 .5-2 2 .1 7 0 14 0 21 0 6.9.1 13.8-.1 20.8 0 2.1.6 2.5 2.6 2.5 3.6-.2 7.2 0 10.9 0 5.2 0 5.1 0 5.1-5.2.2-1.7-.4-1.9-1.8-1.9zm164.3-135.4c0 14.5-8.8 23.3-23.3 23.3-3.1 0-6.1.2-9.2-.1-2.5-.2-2.8.7-2.8 2.9.1 14.2 0 28.3.1 42.5 0 2-.5 2.6-2.5 2.5-4.8-.2-9.7-.2-14.5 0-2 .1-2.5-.4-2.5-2.5.1-19.4.1-38.8.1-58.2v-58.2c0-2 .6-2.5 2.5-2.5 9.7.1 19.3 0 29 .1 14.2 0 23.2 9 23.2 23.3-.1 9-.1 18-.1 26.9zm-18.9-27.2c-.1-4.2-2.5-6.1-6.8-6.1-2.6 0-5.2.1-7.7 0-1.5-.1-1.9.3-1.9 1.9.1 6.2 0 12.4 0 18.6 0 6.3.1 12.6 0 18.8 0 1.6.5 2 2 2 2.6-.1 5.1 0 7.7 0 4.1 0 6.5-2 6.6-6.1.3-9.8.2-19.5.1-29.1zm3.5 133c.4 9.2.4 18.3 0 27.5-.3 5.3-3.6 8.6-8.9 8.9-3.6.2-7.2.1-10.8.2-1.6.1-2-.5-2-2.1.1-7.1 0-14.2 0-21.2v-21c0-1.4.3-2 1.8-1.9 3.3.1 6.6 0 9.9.1 5.9.1 9.7 3.6 10 9.5zm-7.3 1.6c0-1-.1-1.9-.6-2.8-1.3-2.2-3.5-1.7-5.4-1.6-1.7.2-.8 1.8-.8 2.7-.1 4.5 0 9 0 13.5v14.7c0 .7-.4 1.6.9 1.9 3.7.8 5.9-.9 5.9-4.5v-23.9zm-43 11.9v-18.1c0-4.9 0-4.8-5-5-2-.1-2.6.4-2.5 2.5.1 12.7.1 25.4.1 38.2 0 5.7 0 5.7 5.7 5.6 1.5 0 1.9-.5 1.9-1.9-.3-7.2-.2-14.2-.2-21.3zM293 304.6c-4.7.1-9.5.1-14.3 0-1.6 0-1.8.5-1.8 1.9.1 7 0 14 0 21v17.9c0 5.7 0 5.6 5.8 5.5 1.4 0 1.8-.5 1.8-1.8-.1-4.2 0-8.4 0-12.6 0-5.8 0-5.8 5.6-5.8h1.2c.9.1 1-.4 1.1-1.1.6-5.1.4-5.3-4.7-5.3-.6 0-1.1-.1-1.7 0-1.3.1-1.7-.5-1.6-1.7.1-1.8 0-3.7 0-5.6 0-5.8 0-5.8 5.7-5.8 4.9 0 4.8 0 4.8-4.8.1-1.6-.5-1.8-1.9-1.8zm36 39.2c-2.6.1-5.1 0-7.7 0-.9 0-1.7 0-1.7-1.3.1-3.7 0-7.4 0-11.1 0-1 .4-1.5 1.4-1.4h2.2c4.2 0 4.1 0 4.1-4.2 0-1.3-.1-2.1-1.8-2-1.9.1-4.4.9-5.5-.4-1.2-1.4-.3-3.8-.4-5.8 0-2-.7-4.6.4-5.8 1.2-1.4 3.9-.4 6-.5 4.8-.1 4.7 0 4.7-4.8 0-1.7-.6-1.9-2.1-1.9-4.8.1-9.7.1-14.5 0-1.6 0-2 .4-2 2 .1 7.1 0 14.2 0 21.2 0 6.9.1 13.8 0 20.8 0 1.9.5 2.3 2.3 2.2 3.7-.1 7.4 0 11.1 0 5.4 0 5.3 0 5.1-5.4 0-1.3-.4-1.6-1.6-1.6z"/><path fill="#009D37" d="M262 15c31.7 0 62.5 6.2 91.5 18.5 28 11.8 53.1 28.8 74.7 50.4s38.5 46.7 50.4 74.7c12.2 29 18.5 59.7 18.5 91.5s-6.2 62.5-18.5 91.5c-11.8 28-28.8 53.1-50.4 74.7-21.6 21.6-46.7 38.5-74.7 50.4-29 12.2-59.7 18.5-91.5 18.5s-62.5-6.2-91.5-18.5c-28-11.8-53.1-28.8-74.7-50.4s-38.5-46.7-50.4-74.7c-12.2-29-18.5-59.7-18.5-91.5s6.2-62.5 18.5-91.5c11.8-28 28.8-53.1 50.4-74.7s46.7-38.5 74.7-50.4C199.5 21.2 230.3 15 262 15m0-21C120.6-6 6 108.6 6 250s114.6 256 256 256 256-114.6 256-256S403.4-6 262-6z"/></symbol><symbol viewBox="27 -6 553.4 512" id="adv-item3"><path fill="#D0E86D" d="M517.3 101.4c-28.6 0-51.9 23.3-51.9 51.9 0 2.7.2 5.4.6 8.1l-56.4 18.2c-19.1-37-57.7-62.3-102.1-62.3-3.9 0-7.8.2-11.6.6l-4.4-24.3c18.4-8 31.4-26.4 31.4-47.7C322.9 17.3 299.6-6 271-6s-51.9 23.3-51.9 51.9 23.3 51.9 51.9 51.9l4.4 24.1c-32.8 9.6-59.5 33.5-73 64.4l-45.7-14.2c.2-2 .3-4.1.3-6.2 0-35.8-29.1-65-65-65s-65 29.1-65 65 29.1 65 65 65c26.4 0 49.1-15.8 59.3-38.4l44.5 13.9c-1.9 8.3-2.9 16.9-2.9 25.8 0 29.5 11.2 56.5 29.6 76.8l-54.4 70.1c-9.2-5-19.7-7.8-30.8-7.8-35.8 0-65 29.1-65 65s29.1 65 65 65c35.8 0 65-29.1 65-65 0-17.1-6.7-32.7-17.6-44.3l53.3-68.6c19.3 14.8 43.5 23.7 69.7 23.7 26.8 0 51.4-9.2 71-24.6l19.1 20.3c-8.3 10.9-13.2 24.5-13.2 39.2 0 35.8 29.1 65 65 65s65-29.1 65-65-29.1-65-65-65c-13.5 0-26.1 4.2-36.5 11.3L394 308.1c17.8-20.2 28.6-46.7 28.6-75.7 0-11.5-1.7-22.5-4.8-33l56-18c9.2 14.5 25.4 24.2 43.9 24.2 28.6 0 51.9-23.3 51.9-51.9s-23.6-52.3-52.3-52.3zm-401.9 80l15.5 4.8c-7.3 14.1-22.1 23.8-39 23.8-24.2 0-44-19.7-44-44s19.7-44 44-44c24.1 0 43.8 19.6 43.9 43.7l-14.2-4.4c-5.5-1.7-11.4 1.4-13.1 6.9-1.7 5.5 1.4 11.4 6.9 13.2zm21.7 210.9c1.3 0 2.6.1 3.8.2-25.1 2-44.8 23-44.8 48.6 0 6.5 1.3 12.6 3.6 18.3-4.2-6.7-6.6-14.6-6.6-23.1 0-24.3 19.8-44 44-44zm312.2-54.5c1.8 0 3.6.1 5.3.3-24.3 2.8-43.1 23.4-43.1 48.4 0 10.7 3.5 20.6 9.3 28.6-9.5-8.1-15.5-20.1-15.5-33.5.1-24 19.8-43.8 44-43.8zM239.9 45.9c0-17.1 13.9-30.9 30.9-30.9 1.3 0 2.6.1 3.8.2-16.5 3.3-28.9 17.9-28.9 35.4 0 7.1 2.1 13.7 5.6 19.3-6.9-5.6-11.4-14.3-11.4-24zm139.3 246.6l-21.6-22.9c-4-4.2-10.6-4.4-14.8-.4-4.2 4-4.4 10.6-.4 14.8l21.6 22.9c-15.7 11.9-35.3 19-56.5 19-21.4 0-41.1-7.2-56.8-19.2l18.2-23.4c3.6-4.6 2.7-11.2-1.9-14.7-4.6-3.6-11.2-2.7-14.7 1.9l-16.8 21.7c-13.5-16.3-21.7-37.2-21.7-59.9 0-9.1 1.3-17.9 3.7-26.3.7-.9 1.3-2 1.7-3.2.3-1.1.5-2.2.5-3.2 13.3-35.6 47.7-61.1 87.9-61.1 51.7 0 93.8 42.1 93.8 93.8-.1 22.8-8.4 43.9-22.2 60.2zm138.1-108.2c-17.1 0-30.9-13.9-30.9-30.9 0-17.1 13.9-30.9 30.9-30.9s30.9 13.9 30.9 30.9c.1 17.1-13.8 30.9-30.9 30.9z"/><path fill="#009D37" d="M528.3 106.3c-28.6 0-51.9 23.3-51.9 51.9 0 2.7.2 5.4.6 8.1l-56.4 18.1c-19.1-37-57.7-62.3-102.1-62.3-3.9 0-7.8.2-11.6.6l-4.4-24.3c18.4-8 31.4-26.4 31.4-47.7 0-28.6-23.3-51.9-51.9-51.9s-51.9 23.3-51.9 51.9 23.3 51.9 51.9 51.9l4.4 24.1c-32.8 9.6-59.5 33.5-73 64.4L167.5 177c.2-2 .3-4.1.3-6.2 0-35.8-29.1-65-65-65s-65 29.1-65 65 29.1 65 65 65c26.4 0 49.1-15.8 59.3-38.4l44.5 13.9c-1.9 8.3-2.9 16.9-2.9 25.8 0 29.5 11.2 56.5 29.6 76.8L178.9 384c-9.2-5-19.7-7.8-30.8-7.8-35.8 0-65 29.1-65 65s29.1 65 65 65c35.8 0 65-29.1 65-65 0-17.1-6.7-32.7-17.6-44.3l53.3-68.6c19.3 14.8 43.5 23.7 69.7 23.7 26.8 0 51.4-9.2 71-24.6l19.1 20.3c-8.3 10.9-13.2 24.5-13.2 39.2 0 35.8 29.1 65 65 65s65-29.1 65-65-29.1-65-65-65c-13.5 0-26.1 4.2-36.5 11.3L404.8 313c17.8-20.2 28.6-46.7 28.6-75.7 0-11.5-1.7-22.5-4.8-33l56-18c9.2 14.5 25.4 24.2 43.9 24.2 28.6 0 51.9-23.3 51.9-51.9s-23.4-52.3-52.1-52.3zM250.9 50.8c0-17.1 13.9-30.9 30.9-30.9 17.1 0 30.9 13.9 30.9 30.9 0 11-5.7 20.6-14.3 26.1l-2.3-12.6c-1-5.7-6.5-9.5-12.2-8.4-5.7 1-9.5 6.5-8.4 12.2l2.5 13.4c-15.3-2-27.1-15-27.1-30.7zm-148 163.9c-24.2 0-44-19.7-44-44s19.7-44 44-44c24.1 0 43.8 19.6 43.9 43.7l-14.2-4.3c-5.5-1.7-11.4 1.4-13.1 6.9s1.4 11.4 6.9 13.1l15.5 4.8c-7.4 14.2-22.1 23.8-39 23.8zM148.1 485c-24.2 0-44-19.7-44-44s19.7-44 44-44 44 19.7 44 44-19.8 44-44 44zm356.2-98.4c0 24.2-19.7 44-44 44s-44-19.7-44-44 19.7-44 44-44 44 19.8 44 44zm-114.1-89.3l-21.6-22.9c-4-4.2-10.6-4.4-14.8-.4-4.2 4-4.4 10.6-.4 14.8l21.6 22.9c-15.7 11.9-35.3 19-56.5 19-21.4 0-41.1-7.2-56.8-19.2l18.2-23.4c3.6-4.6 2.7-11.2-1.9-14.7-4.6-3.6-11.2-2.7-14.7 1.9L246.5 297c-13.5-16.3-21.7-37.2-21.7-59.9 0-9.1 1.3-17.9 3.7-26.3.7-.9 1.3-2 1.7-3.2.3-1.1.5-2.2.5-3.2 13.3-35.6 47.7-61.1 87.9-61.1 51.7 0 93.8 42.1 93.8 93.8-.1 22.8-8.4 43.9-22.2 60.2zm138.1-108.1c-17.1 0-30.9-13.9-30.9-30.9 0-17.1 13.9-30.9 30.9-30.9s30.9 13.9 30.9 30.9c.1 17-13.8 30.9-30.9 30.9z"/></symbol><symbol viewBox="6 -6 512 512" id="adv-item4"><g fill="#D0E86D"><path d="M489.4 486h-21.9V155l-3.2-.1c-4.5-8.5-13.5-14.3-23.7-14.3h-49c-14.8 0-26.9 12.1-26.9 26.9V486H309V311.8c0-14.8-12.1-26.9-26.9-26.9h-49c-14.8 0-26.9 12.1-26.9 26.9V486h-55l-.7-13.9v-76.3c0-14.8-12.1-26.9-26.9-26.9h-49c-14.8 0-26.9 12.1-26.9 26.9V486H24.6c-5.5 0-10 4.5-10 10s4.5 10 10 10h464.8c5.5 0 10-4.5 10-10s-4.5-10-10-10zM67.7 395.8c0-2.4 1.2-4.5 3.1-5.7L67.9 486h-.2v-90.2zM289 486h-62.8V311.8c0-3.8 3.1-6.9 6.9-6.9h49c3.8 0 6.9 3.1 6.9 6.9V486zm95.7-318.5c0-2.2 1.1-4.2 2.7-5.5l-2.7 324h-.1V167.5h.1zM110.3 272.4c2.6 0 5.1-1 7.1-2.9L290.1 96.8l37.3 37.3c3.9 3.9 10.2 3.9 14.1 0l106-106V62c0 5.5 4.5 10 10 10s10-4.5 10-10V4.5c.1-2.7-.8-5.5-2.9-7.6s-4.9-3-7.6-2.9h-61c-5.5 0-10 4.5-10 10s4.5 10 10 10h37.4l-98.9 98.9-37.3-37.3c-1.9-1.9-4.4-2.9-7.1-2.9s-5.2 1.1-7.1 2.9L103.3 255.3c-3.9 3.9-3.9 10.2 0 14.1 1.9 2 4.5 3 7 3z"/><circle cx="76.6" cy="297.3" r="10"/></g><g fill="#009D37"><path d="M499.4 486h-21.9V167.5c0-14.8-12.1-26.9-26.9-26.9h-49c-14.8 0-26.9 12.1-26.9 26.9V486H319V311.8c0-14.8-12.1-26.9-26.9-26.9h-49c-14.8 0-26.9 12.1-26.9 26.9V486h-55.7v-90.2c0-14.8-12.1-26.9-26.9-26.9h-49c-14.8 0-26.9 12.1-26.9 26.9V486H34.6c-5.5 0-10 4.5-10 10s4.5 10 10 10h464.8c5.5 0 10-4.5 10-10s-4.5-10-10-10zm-358.9 0H77.7v-90.2c0-3.8 3.1-6.9 6.9-6.9h49c3.8 0 6.9 3.1 6.9 6.9V486zm158.5 0h-62.8V311.8c0-3.8 3.1-6.9 6.9-6.9h49c3.8 0 6.9 3.1 6.9 6.9V486zm158.5 0h-62.8V167.5c0-3.8 3.1-6.9 6.9-6.9h49c3.8 0 6.9 3.1 6.9 6.9V486zM120.3 272.4c2.6 0 5.1-1 7.1-2.9L300.1 96.8l37.3 37.3c3.9 3.9 10.2 3.9 14.1 0l106-106V62c0 5.5 4.5 10 10 10s10-4.5 10-10V4.5c.1-2.7-.8-5.5-2.9-7.6s-4.9-3-7.6-2.9h-61c-5.5 0-10 4.5-10 10s4.5 10 10 10h37.4l-98.9 98.9-37.3-37.3c-1.9-1.9-4.4-2.9-7.1-2.9s-5.2 1.1-7.1 2.9L113.3 255.3c-3.9 3.9-3.9 10.2 0 14.1 1.9 2 4.5 3 7 3z"/><circle cx="86.6" cy="297.3" r="10"/></g></symbol><symbol viewBox="0 0 309.156 309.156" id="arrow-down"><path d="M288.461 64.929L154.589 202.766 20.723 64.94 0 85.07l154.589 159.158L309.156 85.07z"/></symbol><symbol viewBox="0 0 349.629 349.629" id="arrow-up"><path d="M174.827 73.433L0 253.42l23.434 22.77 151.393-155.872 151.389 155.878 23.413-22.776z"/></symbol><symbol viewBox="0 0 124.099 124.1" id="contacts-email"><path d="M18.25 106.7c5.6 5.399 12.3 9.8 20.1 12.8 7.8 3 16.5 4.6 25.9 4.6 10.5 0 20.2-1.6 28.9-4.899 7.9-2.9 1.1-17.601-4.7-15.2-6.399 2.7-14.2 4.1-23.101 4.1-7 0-13.399-1.1-19-3.199-5.6-2.101-10.5-5.101-14.5-9-4-3.9-7.2-8.7-9.4-14.2-2.3-5.601-3.4-12-3.4-19 0-6.6 1.1-12.9 3.3-18.5 2.2-5.6 5.2-10.6 9.2-14.6 3.9-4.1 8.7-7.4 14.2-9.7 5.5-2.3 11.7-3.5 18.5-3.5 6.301 0 12.1.9 17.301 2.5 5.1 1.6 9.5 4.1 13.199 7.4 3.7 3.3 6.6 7.3 8.7 12.1 2.101 4.8 3.101 10.4 3.101 16.8 0 3.7-.4 7.2-1.201 10.5-.799 3.1-1.799 5.899-3.199 8.1-1.301 2.101-2.801 3.8-4.6 5-2.101 1.4-5.201 2.2-7.601 1.4-3-1-2.399-5.2-2.2-7.7.301-3.4 1.2-6.6 1.9-9.9 1.1-5.4 2.3-10.7 3.4-16 .6-2.9 1.299-5.9 1.899-8.8.8-3.7-2-7.3-5.899-7.3h-4.4c-2.7 0-5.1 1.8-5.801 4.4-.299 1.2-.6 2.2-.6 2.2-2.199-6.8-10.3-8.7-16.7-8.6-8.4.1-16.1 4.4-21.7 10.5-.5.6-1.1 1.2-1.6 1.8-2.9 3.5-5.1 7.6-6.6 11.9-1.6 4.6-2.4 9.3-2.4 14.1 0 4.101.6 8 1.7 11.5 1.2 3.601 2.9 6.7 5.1 9.3 2.2 2.601 5 4.7 8.3 6.2 3.3 1.5 7 2.3 11 2.3 3 0 5.8-.5 8.3-1.399 2.4-.9 4.6-2 6.5-3.3 1.5-1 2.9-2.2 4-3.301.699 1.301 1.5 2.4 2.6 3.5 2.801 3 7.1 4.5 12.801 4.5 4.5 0 8.899-.899 13-2.699 4.1-1.801 7.799-4.601 10.899-8.2 3-3.601 5.5-8 7.3-13.2 1.801-5.2 2.7-11.2 2.7-17.8 0-9-1.7-17-5-23.7s-7.8-12.4-13.399-16.9c-5.5-4.5-11.9-7.8-19-10.1C79.05 1.1 71.75 0 64.25 0c-8.7 0-17 1.6-24.7 4.7-7.7 3.2-14.5 7.6-20.2 13.1-5.8 5.5-10.4 12.2-13.7 19.7-3.3 7.5-5 15.9-5 24.7 0 8.899 1.5 17.3 4.6 24.8 3 7.6 7.4 14.2 13 19.7zm54.099-42c-.699 2.7-1.699 5.3-3.1 7.7-1.4 2.3-3.1 4.199-5.3 5.699-2 1.4-4.4 2.101-7.4 2.101-1.9 0-3.4-.4-4.5-1.101-1.2-.8-2.2-1.8-2.9-3.1-.8-1.4-1.3-2.9-1.6-4.4-.3-1.6-.5-3.1-.5-4.399 0-2.8.4-5.6 1.2-8.5.8-2.8 1.9-5.4 3.4-7.6 1.5-2.2 3.2-4 5.3-5.4 1.9-1.3 4-1.9 6.5-1.9 2 0 3.601.3 4.8 1 1.2.7 2.2 1.6 2.9 2.7.8 1.2 1.3 2.6 1.699 4.1.4 1.7.601 3.5.601 5.2-.1 2.5-.399 5.1-1.1 7.9z"/></symbol><symbol viewBox="0 0 368.666 368.666" id="contacts-location"><path d="M184.333 0C102.01 0 35.036 66.974 35.036 149.297c0 33.969 11.132 65.96 32.193 92.515 27.27 34.383 106.572 116.021 109.934 119.479l7.169 7.375 7.17-7.374c3.364-3.46 82.69-85.116 109.964-119.51 21.042-26.534 32.164-58.514 32.164-92.485C333.63 66.974 266.656 0 184.333 0zm101.462 229.355c-21.956 27.687-80.92 89.278-101.462 110.581-20.54-21.302-79.483-82.875-101.434-110.552-18.228-22.984-27.863-50.677-27.863-80.087C55.036 78.002 113.038 20 184.333 20c71.294 0 129.297 58.002 129.296 129.297 0 29.412-9.625 57.096-27.834 80.058z"/><path d="M184.333 59.265c-48.73 0-88.374 39.644-88.374 88.374s39.645 88.374 88.374 88.374 88.374-39.645 88.374-88.374-39.644-88.374-88.374-88.374zm0 156.748c-37.702 0-68.374-30.673-68.374-68.374 0-37.702 30.673-68.374 68.374-68.374s68.373 30.673 68.374 68.374c0 37.702-30.672 68.374-68.374 68.374z"/></symbol><symbol viewBox="0 0 348.077 348.077" id="contacts-phone"><path d="M340.273 275.083l-53.755-53.761c-10.707-10.664-28.438-10.34-39.518.744l-27.082 27.076a792.327 792.327 0 0 1-5.344-2.973c-17.102-9.476-40.509-22.464-65.14-47.113-24.704-24.701-37.704-48.144-47.209-65.257-1.003-1.813-1.964-3.561-2.913-5.221l18.176-18.149 8.936-8.947c11.097-11.1 11.403-28.826.721-39.521L73.39 8.194c-10.682-10.68-28.421-10.356-39.518.744l-15.15 15.237.414.411c-5.08 6.482-9.325 13.958-12.484 22.02C3.74 54.28 1.927 61.603 1.098 68.941-6 127.785 20.89 181.564 93.866 254.541c100.875 100.868 182.167 93.248 185.674 92.876 7.638-.913 14.958-2.738 22.397-5.627 7.992-3.122 15.463-7.361 21.941-12.43l.331.294 15.348-15.029c11.074-11.098 11.393-28.83.716-39.542z"/></symbol><symbol viewBox="0 0 139.4 44.7" id="dorohovdesign"><path d="M52.2 19.5V8.1H57c3.6 0 6.1 2.1 6.1 5.7 0 3.5-2.6 5.7-6.1 5.7h-4.8zm7.9-5.7c0-1.8-1.1-3.1-3.1-3.1h-1.9v6.2H57c2 0 3.1-1.4 3.1-3.1m4.1 0c0-3.4 2.6-5.9 6.1-5.9 3.5 0 6.1 2.4 6.1 5.9 0 3.5-2.6 5.9-6.1 5.9-3.5 0-6.1-2.4-6.1-5.9m9.2 0c0-1.9-1.2-3.3-3.1-3.3-1.9 0-3.1 1.4-3.1 3.3 0 1.8 1.2 3.3 3.1 3.3 1.9 0 3.1-1.4 3.1-3.3m11 5.7l-1.9-3.8H81v3.8h-2.9V8.1h5.7c2.5 0 3.9 1.7 3.9 3.8 0 2-1.2 3-2.3 3.4l2.3 4.2h-3.3zm.3-7.6c0-.8-.6-1.2-1.4-1.2H81v2.4h2.3c.8 0 1.4-.4 1.4-1.2m4.2 1.9c0-3.4 2.6-5.9 6.1-5.9 3.5 0 6.1 2.4 6.1 5.9 0 3.5-2.6 5.9-6.1 5.9-3.5 0-6.1-2.4-6.1-5.9m9.1 0c0-1.9-1.2-3.3-3.1-3.3-1.9 0-3.1 1.4-3.1 3.3 0 1.8 1.2 3.3 3.1 3.3 1.9 0 3.1-1.4 3.1-3.3m12.4 5.7v-4.6h-4.7v4.6h-3V8.1h3v4.3h4.7V8.1h2.9v11.4zm4.6-5.7c0-3.4 2.6-5.9 6.1-5.9 3.5 0 6.1 2.4 6.1 5.9 0 3.5-2.6 5.9-6.1 5.9-3.5 0-6.1-2.4-6.1-5.9m9.2 0c0-1.9-1.2-3.3-3.1-3.3-1.9 0-3.1 1.4-3.1 3.3 0 1.8 1.2 3.3 3.1 3.3 1.9 0 3.1-1.4 3.1-3.3m7.3 5.7l-4.3-11.4h3.3l2.8 8.2 2.8-8.2h3.3l-4.2 11.4zm-79.3 17V25.1H57c3.6 0 6.1 2.1 6.1 5.7 0 3.5-2.6 5.7-6.1 5.7h-4.8zm7.9-5.7c0-1.8-1.1-3.1-3.1-3.1h-1.9v6.2H57c2 0 3.1-1.4 3.1-3.1m4.7 5.7V25.1h8.3v2.6h-5.3v1.8H73V32h-5.2v1.9h5.3v2.6zm9.6-1.6l1.5-2.2c.8.8 2.1 1.5 3.6 1.5 1 0 1.6-.4 1.6-.9 0-1.5-6.4-.3-6.4-4.7 0-1.9 1.6-3.6 4.5-3.6 1.8 0 3.4.5 4.6 1.6l-1.6 2.1c-1-.8-2.2-1.2-3.3-1.2-.8 0-1.2.3-1.2.8 0 1.4 6.4.4 6.4 4.6 0 2.3-1.7 3.8-4.7 3.8-2.2 0-3.8-.7-5-1.8m11.5-9.8h2.9v11.3h-2.9zm4.7 5.7c0-3.6 2.8-5.9 6.1-5.9 2.5 0 4.1 1.3 4.8 2.8L99.1 29c-.4-.7-1.3-1.4-2.4-1.4-1.9 0-3.2 1.4-3.2 3.3s1.3 3.3 3.2 3.3c.8 0 1.7-.3 2.1-.7v-.9h-2.6V30h5.5v4.5c-1.2 1.3-2.9 2.2-5 2.2-3.4 0-6.1-2.3-6.1-5.9m20.9 5.7l-4.8-6.6v6.6h-2.9V25.1h3l4.6 6.3v-6.3h2.9v11.4zM17.7 0H0v44.7h17.8c15 0 24.6-8.8 24.6-22.4C42.4 8.7 32.7 0 17.7 0m-.4 35.7h-8V9.5h8c9.3 0 15.7 3.7 15.7 12.7.1 7.5-5.8 13.5-15.7 13.5"/><path d="M19.1 17H17v10.6h2c4 0 6.4-2.4 6.4-5.4 0-3.7-2.6-5.2-6.3-5.2"/></symbol><symbol viewBox="0 0 124.099 124.1" id="email"><path d="M18.25 106.7c5.6 5.399 12.3 9.8 20.1 12.8 7.8 3 16.5 4.6 25.9 4.6 10.5 0 20.2-1.6 28.9-4.899 7.9-2.9 1.1-17.601-4.7-15.2-6.399 2.7-14.2 4.1-23.101 4.1-7 0-13.399-1.1-19-3.199-5.6-2.101-10.5-5.101-14.5-9-4-3.9-7.2-8.7-9.4-14.2-2.3-5.601-3.4-12-3.4-19 0-6.6 1.1-12.9 3.3-18.5 2.2-5.6 5.2-10.6 9.2-14.6 3.9-4.1 8.7-7.4 14.2-9.7 5.5-2.3 11.7-3.5 18.5-3.5 6.301 0 12.1.9 17.301 2.5 5.1 1.6 9.5 4.1 13.199 7.4 3.7 3.3 6.6 7.3 8.7 12.1 2.101 4.8 3.101 10.4 3.101 16.8 0 3.7-.4 7.2-1.201 10.5-.799 3.1-1.799 5.899-3.199 8.1-1.301 2.101-2.801 3.8-4.6 5-2.101 1.4-5.201 2.2-7.601 1.4-3-1-2.399-5.2-2.2-7.7.301-3.4 1.2-6.6 1.9-9.9 1.1-5.4 2.3-10.7 3.4-16 .6-2.9 1.299-5.9 1.899-8.8.8-3.7-2-7.3-5.899-7.3h-4.4c-2.7 0-5.1 1.8-5.801 4.4-.299 1.2-.6 2.2-.6 2.2-2.199-6.8-10.3-8.7-16.7-8.6-8.4.1-16.1 4.4-21.7 10.5-.5.6-1.1 1.2-1.6 1.8-2.9 3.5-5.1 7.6-6.6 11.9-1.6 4.6-2.4 9.3-2.4 14.1 0 4.101.6 8 1.7 11.5 1.2 3.601 2.9 6.7 5.1 9.3 2.2 2.601 5 4.7 8.3 6.2 3.3 1.5 7 2.3 11 2.3 3 0 5.8-.5 8.3-1.399 2.4-.9 4.6-2 6.5-3.3 1.5-1 2.9-2.2 4-3.301.699 1.301 1.5 2.4 2.6 3.5 2.801 3 7.1 4.5 12.801 4.5 4.5 0 8.899-.899 13-2.699 4.1-1.801 7.799-4.601 10.899-8.2 3-3.601 5.5-8 7.3-13.2 1.801-5.2 2.7-11.2 2.7-17.8 0-9-1.7-17-5-23.7s-7.8-12.4-13.399-16.9c-5.5-4.5-11.9-7.8-19-10.1C79.05 1.1 71.75 0 64.25 0c-8.7 0-17 1.6-24.7 4.7-7.7 3.2-14.5 7.6-20.2 13.1-5.8 5.5-10.4 12.2-13.7 19.7-3.3 7.5-5 15.9-5 24.7 0 8.899 1.5 17.3 4.6 24.8 3 7.6 7.4 14.2 13 19.7zm54.099-42c-.699 2.7-1.699 5.3-3.1 7.7-1.4 2.3-3.1 4.199-5.3 5.699-2 1.4-4.4 2.101-7.4 2.101-1.9 0-3.4-.4-4.5-1.101-1.2-.8-2.2-1.8-2.9-3.1-.8-1.4-1.3-2.9-1.6-4.4-.3-1.6-.5-3.1-.5-4.399 0-2.8.4-5.6 1.2-8.5.8-2.8 1.9-5.4 3.4-7.6 1.5-2.2 3.2-4 5.3-5.4 1.9-1.3 4-1.9 6.5-1.9 2 0 3.601.3 4.8 1 1.2.7 2.2 1.6 2.9 2.7.8 1.2 1.3 2.6 1.699 4.1.4 1.7.601 3.5.601 5.2-.1 2.5-.399 5.1-1.1 7.9z"/></symbol><symbol viewBox="0 0 96.124 96.123" id="fb"><path d="M72.089.02L59.624 0C45.62 0 36.57 9.285 36.57 23.656v10.907H24.037a1.96 1.96 0 0 0-1.96 1.961v15.803a1.96 1.96 0 0 0 1.96 1.96H36.57v39.876a1.96 1.96 0 0 0 1.96 1.96h16.352a1.96 1.96 0 0 0 1.96-1.96V54.287h14.654a1.96 1.96 0 0 0 1.96-1.96l.006-15.803a1.963 1.963 0 0 0-1.961-1.961H56.842v-9.246c0-4.444 1.059-6.7 6.848-6.7l8.397-.003a1.96 1.96 0 0 0 1.959-1.96V1.98A1.96 1.96 0 0 0 72.089.02z"/></symbol><symbol viewBox="0 0 97.395 97.395" id="inst"><path d="M12.501 0h72.393c6.875 0 12.5 5.09 12.5 12.5v72.395c0 7.41-5.625 12.5-12.5 12.5H12.501C5.624 97.395 0 92.305 0 84.895V12.5C0 5.09 5.624 0 12.501 0zm58.447 10.821a4.395 4.395 0 0 0-4.383 4.385v10.495a4.396 4.396 0 0 0 4.383 4.385h11.008a4.398 4.398 0 0 0 4.385-4.385V15.206a4.397 4.397 0 0 0-4.385-4.385H70.948zm15.439 30.367h-8.572a28.486 28.486 0 0 1 1.25 8.355c0 16.2-13.556 29.332-30.275 29.332-16.718 0-30.272-13.132-30.272-29.332 0-2.904.438-5.708 1.25-8.355h-8.945v41.141a3.884 3.884 0 0 0 3.872 3.872h67.822a3.883 3.883 0 0 0 3.872-3.872V41.188h-.002zM48.789 29.533c-10.802 0-19.56 8.485-19.56 18.953s8.758 18.953 19.56 18.953c10.803 0 19.562-8.485 19.562-18.953s-8.758-18.953-19.562-18.953z"/></symbol><symbol viewBox="0 0 522.4 323" id="logotip"><path fill-rule="evenodd" clip-rule="evenodd" fill="#009D37" d="M247.8 53.5c18.3 0 23.8 8.6 23.8 18.7 0 13.2-11.5 19.8-24.6 19.8h-14.7V53.8c6.1-.1 11.3-.3 15.5-.3z"/><path fill-rule="evenodd" clip-rule="evenodd" fill="#0064AD" d="M209.8 64.1C194 79.1 179 95.7 163 112.7c-14.4 15.3-26.4 30.6-40.8 44-13.4 12.5-28.7 25.9-49.3 35.7C47 204.7 30.8 203.7 0 204.5c7.7 5.4 43.4 12.1 55.8 13.8 42.2 5.7 80 2.5 117.4-15.9 23.5-9.3 61.5-37.1 94.2-63.2L248.1 113h-15.8v48h-22.5V64.1z"/><path fill-rule="evenodd" clip-rule="evenodd" fill="#009D37" d="M317.1 98.3c8.1-6.9 16.6-14.2 18.6-15.9 32.7-27 76.2-63.4 123.1-65.5-7.2-5.3-57.4-13.9-70.5-15.2-28-2.9-51.5-2.2-77.6 4.1-23.8 5.8-43.7 15-61.6 26.7 34.8.1 46.3 17.5 46.3 39.6 0 22-14.1 33-24.7 36.7l13.2 17.3c13.2-10.9 24.8-20.7 33.2-27.8z"/><path fill-rule="evenodd" clip-rule="evenodd" fill="#0064AD" d="M350.8 213.7c23.1-23.8 35.9-41.5 48.6-62.7 20-33.3 37.2-71.6 63.9-100 7.3-7.8 15.3-14.6 26.2-20.9 7-4.1 24.1-11.7 32.9-12.6-14.8-5-54.3 1.9-68.4 6.3-21.4 6.8-35 14.9-50.1 26.3-26.4 20-53.7 44.8-81.9 69.3 9.9 2.1 18.2 6.5 23.6 12.5l-12.1 16.9c-6.2-6-12.5-9.5-22.7-9.5-11.2 0-18 5.7-18 14.1 0 26.4 57.6 18.2 58 60.3z"/><path fill-rule="evenodd" clip-rule="evenodd" fill="#009D37" d="M72.8 227.2c4.2 3.7 24 13.5 30.6 16.4 63.7 27.6 121.3 42.6 188.8 10.7 2.6-1.3 5.5-2.7 8.4-4.2-14.5-1.8-29.3-8.6-34.6-19.7l12.8-15.4c7.5 9.7 19.6 14.5 29.5 14.5 10.6 0 18.7-5.3 18.7-15 0-23.4-49.6-19.8-57.1-52.2-31.7 24-64.5 44.1-98.4 53.8-22 6.3-48.1 10.9-71.6 11.5-9.2.3-18.2-.6-27.1-.4z"/><path fill-rule="evenodd" clip-rule="evenodd" fill="#706F6F" d="M161.6 309.1l2.1-10.4 4.2.9 5.9 12.1 3.9.8-6.4-12.8c3-.2 6.3-2.2 7.2-6.2.9-4.2-.6-8.2-7.7-9.6-.7-.2-5.6-1.1-7-1.4l-5.3 26.1 3.1.5zm8.3-22.5c4.6.9 5.7 3.4 5.1 6-.6 3.1-3.9 4.4-6.9 3.7l-3.8-.8 2-9.7c1.2.4 2.8.7 3.6.8zm23.6 23.5l.6 2.5c-1.9 1.3-4.4 1.7-6.7 1.4-5.5-.7-8.6-4.7-8-10 .6-4.9 4.3-8.5 9.9-7.8 4.4.6 7.5 4.1 6.9 8.8-.1.8-.3 1.5-.4 2l-13-1.7c-.1 3.2 2 5.4 5.3 5.8 2.1.4 4.2-.1 5.4-1zm-4.6-11.1c-3.1-.4-5.3 1.3-6 3.8l10.3 1.3c.2-2.7-1.4-4.7-4.3-5.1zm7.6 18.2c-.2 3.7 3.5 5.6 8.4 5.8 5 .2 8.8-1.4 8.9-5 .2-3.7-3.5-5.7-8.4-5.9h-1c-.2-.3-.3-.7-.3-1.2 0-.3.1-.6.2-.9.4.1.8.1 1.1.1 4.2.2 7.1-2.4 7.3-5.8 0-1.1-.2-2.1-.7-3l3.3-.6v-2.5l-5.1 1c-1.1-.9-2.6-1.4-4.3-1.5-4.3-.2-7.1 2.5-7.3 5.9-.1 2.5 1.2 4.7 3.6 5.8-.3.4-.5.9-.5 1.4 0 .5.1 1 .4 1.4-3.2.6-5.5 2.2-5.6 5zm2.8.1c.1-1.9 2.3-2.9 6-2.8 3.6.2 5.8 1.4 5.7 3.3-.1 1.9-2.5 2.9-6 2.7-3.5-.1-5.7-1.3-5.7-3.2zm2.3-13.6c.1-2.1 1.8-3.7 4.3-3.6 2.5.1 4.1 1.9 4 4-.1 2.2-1.9 3.6-4.3 3.5-2.5-.1-4.1-1.7-4-3.9zm29.4 6.8c-1 1.1-2.9 2-5.1 2.1-3.3.2-5.8-1.6-6.2-4.8l13.1-.7c.1-.5.1-1.2.1-2.1-.3-4.7-4-7.6-8.4-7.4-5.6.3-8.6 4.4-8.3 9.4.3 5.4 4.1 8.7 9.6 8.4 2.3-.1 4.7-1 6.3-2.6l-1.1-2.3zm-6.6-10.1c3-.2 4.9 1.5 5.2 4.3l-10.4.6c.3-2.7 2.1-4.7 5.2-4.9zm13.1 13.9l3-.4-1.6-12.2c.9-1.4 2.6-2.6 4.5-2.8 3.2-.4 5 1 5.5 4.6l1.2 9.2 3-.4-1.3-9.8c-.7-5.3-3.6-7.1-8.1-6.5-2.2.3-4.2 1.7-5.2 3.1l-.3-2.1-3 .4 2.3 16.9zm32.8-10.4c-.8 1.2-2.6 2.4-4.7 2.9-3.3.8-6-.6-7-3.6l12.8-3c0-.5-.1-1.2-.3-2-1.1-4.6-5.2-6.8-9.5-5.8-5.5 1.3-7.7 5.8-6.6 10.7 1.2 5.3 5.5 7.9 10.9 6.6 2.2-.5 4.5-1.8 5.7-3.6l-1.3-2.2zm-8.2-8.8c2.9-.7 5.1.6 5.8 3.3l-10.1 2.4c-.2-2.7 1.3-5 4.3-5.7zm15.2 11.2l2.9-.9-3.8-11.5c.2-1.4.8-2.8 2.6-3.4 1-.3 1.5-.3 2.4-.1l.1-3c-.7-.2-1.4-.2-2.7.2-2.1.7-2.9 2-3.4 3.5l-.6-1.9-2.9.9 5.4 16.2zm8.5-17.1c1-1.1 2-2.1 4-2.8 3.2-1.2 4.4.7 5.5 3.7-1.4-.4-3.1 0-4.4.4-3.5 1.3-5.4 4-4.2 7.3 1.1 3.1 3.8 4.2 6.7 3.2 2.6-1 3.8-2.6 4.3-4.2l.8 2.1 2.7-1-3.6-9.9c-1.5-4.2-4-6-8.6-4.3-2 .7-3.7 2-4.8 3.4l1.6 2.1zm7.7 8.9c-1.9.7-3.3.1-3.8-1.5-.7-1.9.7-3.3 2.5-3.9 1.4-.5 2.7-.6 4-.3l.7 2c-.5 1.4-1.3 3-3.4 3.7zm9.2-8.4l-6.3-14 2.8-1.2 1.9 4.3 5.7-2.6 1.2 2.6-5.7 2.6 3.1 6.8c1.1 2.5 2.5 3.5 4.5 2.6 1.1-.5 1.7-1.3 2.1-2l1.8 1.8c-.5 1.1-1.7 2.3-3.4 3.1-3.6 1.6-5.9 0-7.7-4zm15.8-.4l2.7-1.3-7.5-15.4-2.7 1.3 7.5 15.4zm-10.7-21c.6 1.1 1.7 1.4 2.6.9.9-.4 1.4-1.5.8-2.6-.5-1-1.6-1.2-2.5-.8-.9.5-1.4 1.5-.9 2.5zm13.6 10.3c-2.7-4.3-1.7-9.5 2.9-12.4 4.6-2.9 9.7-1.7 12.5 2.7 2.7 4.3 1.7 9.5-2.9 12.4-4.6 2.9-9.7 1.7-12.5-2.7zm2.7-1.7c1.9 3 5.3 3.8 8.2 2 2.9-1.8 3.7-5.2 1.7-8.3-1.9-3-5.3-3.8-8.2-2-2.8 1.8-3.6 5.3-1.7 8.3zm21.5-2.4l2.3-2-8.1-9.3c0-1.7.7-3.6 2.2-4.8 2.4-2.1 4.7-1.9 7.1.8l6.1 7 2.3-2-6.5-7.5c-3.5-4-6.9-3.9-10.3-1-1.7 1.5-2.6 3.7-2.6 5.5l-1.4-1.6-2.3 2 11.2 12.9zm28.8-32c-3.8-5.3-13.1 4-18.3-3.1-2.2-3.1-1.7-7.4 2.4-10.3 2.5-1.8 5.4-2.5 7.6-2v3c-2-.3-3.8 0-5.6 1.4-2.4 1.7-3 4.1-1.6 6 3.9 5.3 12.9-4.3 18.3 3.1 2.6 3.5 1.1 8.1-2.8 10.9-2.6 1.9-6.6 2.9-9.1 1.7l.2-2.9c2.5.8 5.4 0 7.2-1.3 2.2-1.7 3.3-4.3 1.7-6.5zm6.1-23.3l-2.2 2.7 5.9 9.9c.5.8 1 1.6 1.5 2.3-.9-.3-1.7-.6-2.7-.8l-11.6-3-2.3 2.8 18.4 4.5.5.9c1.4 2.6 1.6 4.2.7 5.3-.4.5-1.1.8-1.6 1.1l1.2 2.2c1-.3 2.1-.8 2.9-1.8 1.5-1.9 1.4-4.1-1.7-9.9l-9-16.2zm18.6-.5c-2.4-2.5-7.8 5.2-12.2.7-2.1-2.1-1.6-5.2.8-7.5 2-2 4.2-2.7 5.6-2.7l.6 2.7c-1.4.1-3 .6-4.2 1.8-1.2 1.2-1.3 2.6-.5 3.4 2.5 2.6 7.9-5.1 12.1-.8 2.5 2.6 1.3 5.9-1.1 8.3-2 1.9-5 2.8-6.4 2.5l-.3-2.7c1.5.1 3.8-.7 5-1.9 1.2-1.2 1.6-2.7.6-3.8zm2.4-6.8c3.4 2.8 6.2 3.1 8.7.2 1.2-1.5 1.7-3.1 1.7-4.3l-2.4-.8c0 .8-.2 1.8-1 2.7-1.4 1.7-3.1 1.4-5.2-.4l-5.8-4.7 4-4.8-2.2-1.8-4 4.8-3.7-3-1.9 2.3 11.8 9.8zm18.4-19.3l2.5.8c.1 2.3-.9 4.6-2.4 6.4-3.5 4.3-8.6 4.8-12.7 1.4-3.8-3.2-4.9-8.2-1.3-12.5 2.8-3.4 7.5-4.1 11.1-1.1.6.5 1.1 1 1.5 1.5l-8.4 10.1c2.7 1.9 5.6 1.2 7.8-1.3 1.4-1.8 2-3.8 1.9-5.3zm-11.8-2c-2 2.4-1.8 5.2.1 7.1l6.6-8c-2.3-1.7-4.8-1.4-6.7.9zm22.8-28.3c-3.9-2.6-6.5-1.5-8.2 1.1-1.4 2.1-1.7 4.7-.9 6.6-1.8-.5-3.9.4-5.3 2.6-1.2 1.8-1.6 4.2-1.1 6.1l-1.8-1.2-1.7 2.5 14.2 9.5 1.7-2.5-10.2-6.8c-.6-1.4-.5-3.4.6-5 1.3-2 3.2-2.2 5-1.1l9.2 6.2 1.7-2.5-9-6.1c-.3-.2-.8-.5-1-.6-.7-1.4-.7-3.4.5-5.1 1.4-2.1 3.2-2.3 5.5-.7l8.6 5.8 1.7-2.5-9.5-6.3zm11.1-8.1c-3.2-1.4-5.3 7.8-11.1 5.2-2.8-1.2-3.4-4.2-2.1-7.3 1.1-2.6 2.9-4 4.2-4.6l1.5 2.3c-1.2.6-2.5 1.6-3.3 3.3-.7 1.6-.2 2.9.9 3.4 3.3 1.4 5.4-7.7 10.9-5.3 3.3 1.4 3.5 5 2.1 8.1-1.1 2.5-3.5 4.5-5 4.7l-1.3-2.4c1.4-.4 3.3-2.1 4-3.7.7-1.4.6-3-.8-3.7z"/></symbol><symbol viewBox="0 0 41.756 41.756" id="modal-close"><path d="M27.948 20.878L40.291 8.536a5 5 0 1 0-7.07-7.071L20.878 13.809 8.535 1.465a5 5 0 0 0-7.07 7.071l12.342 12.342L1.465 33.22a5 5 0 1 0 7.07 7.071l12.343-12.342 12.343 12.343c.976.977 2.256 1.464 3.535 1.464s2.56-.487 3.535-1.464a5 5 0 0 0 0-7.071L27.948 20.878z"/></symbol><symbol viewBox="0 0 68.1 68.1" id="mouse"><path d="M34.5 67.9h-1c-10.1 0-18.3-8.2-18.3-18.3v-31C15.2 8.5 23.4.3 33.5.3h1c10.1 0 18.3 8.2 18.3 18.3v31c.1 10.1-8.2 18.3-18.3 18.3zm-.9-65.6c-9 0-16.3 7.3-16.3 16.3v31c0 9 7.3 16.3 16.3 16.3h1c9 0 16.3-7.3 16.3-16.3v-31c0-9-7.3-16.3-16.3-16.3h-1z"/><path d="M34.1 25.4c-1.2 0-2.3-1-2.3-2.2v-6.5c0-1.2 1-2.2 2.2-2.2 1.2 0 2.2 1 2.2 2.2v6.5c.1 1.2-.9 2.2-2.1 2.2z"/></symbol><symbol viewBox="0 0 95.481 95.481" id="ok"><path d="M43.041 67.254c-7.402-.772-14.076-2.595-19.79-7.064-.709-.556-1.441-1.092-2.088-1.713-2.501-2.402-2.753-5.153-.774-7.988 1.693-2.426 4.535-3.075 7.489-1.682.572.27 1.117.607 1.639.969 10.649 7.317 25.278 7.519 35.967.329 1.059-.812 2.191-1.474 3.503-1.812 2.551-.655 4.93.282 6.299 2.514 1.564 2.549 1.544 5.037-.383 7.016-2.956 3.034-6.511 5.229-10.461 6.761-3.735 1.448-7.826 2.177-11.875 2.661.611.665.899.992 1.281 1.376 5.498 5.524 11.02 11.025 16.5 16.566 1.867 1.888 2.257 4.229 1.229 6.425-1.124 2.4-3.64 3.979-6.107 3.81-1.563-.108-2.782-.886-3.865-1.977-4.149-4.175-8.376-8.273-12.441-12.527-1.183-1.237-1.752-1.003-2.796.071-4.174 4.297-8.416 8.528-12.683 12.735-1.916 1.889-4.196 2.229-6.418 1.15-2.362-1.145-3.865-3.556-3.749-5.979.08-1.639.886-2.891 2.011-4.014 5.441-5.433 10.867-10.88 16.295-16.322.359-.362.694-.746 1.217-1.305z"/><path d="M47.55 48.329c-13.205-.045-24.033-10.992-23.956-24.218C23.67 10.739 34.505-.037 47.84 0c13.362.036 24.087 10.967 24.02 24.478-.068 13.199-10.971 23.897-24.31 23.851zm12.001-24.186c-.023-6.567-5.253-11.795-11.807-11.801-6.609-.007-11.886 5.316-11.835 11.943.049 6.542 5.324 11.733 11.896 11.709 6.552-.023 11.768-5.285 11.746-11.851z"/></symbol><symbol viewBox="51 -52.2 477.2 477.2" id="owl-next"><path d="M167.6 401.9c-5.3 5.3-5.3 13.8 0 19.1 2.6 2.7 6.1 4 9.5 4s6.9-1.4 9.5-4l225.1-225c5.3-5.3 5.3-13.8 0-19.1L186.6-48.2c-5.3-5.3-13.8-5.3-19.1 0s-5.3 13.8 0 19.1L383 186.4 167.6 401.9z"/></symbol><symbol viewBox="0 0 477.175 477.175" id="owl-prev"><path d="M145.188 238.575l215.5-215.5c5.3-5.3 5.3-13.8 0-19.1s-13.8-5.3-19.1 0l-225.1 225.1c-5.3 5.3-5.3 13.8 0 19.1l225.1 225c2.6 2.6 6.1 4 9.5 4s6.9-1.3 9.5-4c5.3-5.3 5.3-13.8 0-19.1l-215.4-215.5z"/></symbol><symbol viewBox="0 0 459.325 459.325" id="plus"><path d="M459.319 229.668c0 22.201-17.992 40.193-40.205 40.193H269.85v149.271c0 22.207-17.998 40.199-40.196 40.193-11.101 0-21.149-4.492-28.416-11.763-7.276-7.281-11.774-17.324-11.769-28.419l-.006-149.288H40.181c-11.094 0-21.134-4.492-28.416-11.774C4.501 250.817.006 240.769.006 229.668 0 207.471 17.992 189.475 40.202 189.475h149.267V40.202C189.469 17.998 207.471 0 229.671 0c22.192.006 40.178 17.986 40.19 40.187v149.288h149.282c22.196.012 40.165 17.996 40.176 40.193z"/></symbol><symbol viewBox="0 0 56.966 56.966" id="search"><path d="M55.146 51.887L41.588 37.786A22.926 22.926 0 0 0 46.984 23c0-12.682-10.318-23-23-23s-23 10.318-23 23 10.318 23 23 23c4.761 0 9.298-1.436 13.177-4.162l13.661 14.208c.571.593 1.339.92 2.162.92.779 0 1.518-.297 2.079-.837a3.004 3.004 0 0 0 .083-4.242zM23.984 6c9.374 0 17 7.626 17 17s-7.626 17-17 17-17-7.626-17-17 7.626-17 17-17z"/></symbol><symbol viewBox="0 0 480.56 480.56" id="tel"><path d="M365.354 317.9c-15.7-15.5-35.3-15.5-50.9 0-11.9 11.8-23.8 23.6-35.5 35.6-3.2 3.3-5.9 4-9.8 1.8-7.7-4.2-15.9-7.6-23.3-12.2-34.5-21.7-63.4-49.6-89-81-12.7-15.6-24-32.3-31.9-51.1-1.6-3.8-1.3-6.3 1.8-9.4 11.9-11.5 23.5-23.3 35.2-35.1 16.3-16.4 16.3-35.6-.1-52.1-9.3-9.4-18.6-18.6-27.9-28-9.6-9.6-19.1-19.3-28.8-28.8-15.7-15.3-35.3-15.3-50.9.1-12 11.8-23.5 23.9-35.7 35.5-11.3 10.7-17 23.8-18.2 39.1-1.9 24.9 4.2 48.4 12.8 71.3 17.6 47.4 44.4 89.5 76.9 128.1 43.9 52.2 96.3 93.5 157.6 123.3 27.6 13.4 56.2 23.7 87.3 25.4 21.4 1.2 40-4.2 54.9-20.9 10.2-11.4 21.7-21.8 32.5-32.7 16-16.2 16.1-35.8.2-51.8-19-19.1-38.1-38.1-57.2-57.1zm-19.1-79.7l36.9-6.3c-5.8-33.9-21.8-64.6-46.1-89-25.7-25.7-58.2-41.9-94-46.9l-5.2 37.1c27.7 3.9 52.9 16.4 72.8 36.3 18.8 18.8 31.1 42.6 35.6 68.8zm57.7-160.4c-42.6-42.6-96.5-69.5-156-77.8l-5.2 37.1c51.4 7.2 98 30.5 134.8 67.2 34.9 34.9 57.8 79 66.1 127.5l36.9-6.3c-9.7-56.2-36.2-107.2-76.6-147.7z"/></symbol><symbol viewBox="0 0 304.36 304.36" id="vk"><path d="M261.945 175.576c10.096 9.857 20.752 19.131 29.807 29.982 4 4.822 7.787 9.798 10.684 15.394 4.105 7.955.387 16.709-6.746 17.184l-44.34-.02c-11.436.949-20.559-3.655-28.23-11.474-6.139-6.253-11.824-12.908-17.727-19.372-2.42-2.642-4.953-5.128-7.979-7.093-6.053-3.929-11.307-2.726-14.766 3.587-3.523 6.421-4.322 13.531-4.668 20.687-.475 10.441-3.631 13.186-14.119 13.664-22.414 1.057-43.686-2.334-63.447-13.641-17.422-9.968-30.932-24.04-42.691-39.971-22.895-31.021-40.428-65.108-56.186-100.15C-2.01 76.458.584 72.22 9.295 72.07c14.465-.281 28.928-.261 43.41-.02 5.879.086 9.771 3.458 12.041 9.012 7.826 19.243 17.402 37.551 29.422 54.521 3.201 4.518 6.465 9.036 11.113 12.216 5.142 3.521 9.057 2.354 11.476-3.374 1.535-3.632 2.207-7.544 2.553-11.434 1.146-13.383 1.297-26.743-.713-40.079-1.234-8.323-5.922-13.711-14.227-15.286-4.238-.803-3.607-2.38-1.555-4.799 3.564-4.172 6.916-6.769 13.598-6.769h50.111c7.889 1.557 9.641 5.101 10.721 13.039l.043 55.663c-.086 3.073 1.535 12.192 7.07 14.226 4.43 1.448 7.35-2.096 10.008-4.905 11.998-12.734 20.561-27.783 28.211-43.366 3.395-6.852 6.314-13.968 9.143-21.078 2.096-5.276 5.385-7.872 11.328-7.757l48.229.043c1.43 0 2.877.021 4.262.258 8.127 1.385 10.354 4.881 7.844 12.817-3.955 12.451-11.65 22.827-19.174 33.251-8.043 11.129-16.645 21.877-24.621 33.072-7.328 10.223-6.746 15.376 2.357 24.255zm0 0" fill-rule="evenodd" clip-rule="evenodd"/></symbol></svg>