<svg version="1" xmlns="http://www.w3.org/2000/svg" width="346.667" height="346.667" viewBox="0 0 260.000000 260.000000"><path d="M154.1 2.6c-16 4.7-36.1 13.7-49.9 22.4l-4.7 3 4.5.1c20.3.4 35.6 9.2 40.9 23.4 2.8 7.5 3.5 20.7 1.4 28.5-2.6 10.1-10 19.5-18.7 23.8-2.5 1.3-4.6 2.6-4.6 2.9 0 1 12.4 17.3 13.2 17.3.4 0 2.7-1.7 5.1-3.8 2.4-2 6.6-5.5 9.3-7.8 2.7-2.2 11.2-9.4 18.9-16 29.8-25.2 47.2-39.3 56.5-45.9 11.7-8.3 21.4-14.6 27.6-18.1l6.4-3.6V0l-48.7.1h-48.8l-8.4 2.5zM251 52.5c-9 7.2-24.2 19.6-25 20.5-.3.3-5.4 4.8-11.5 10-6 5.2-12.6 10.9-14.5 12.6-1.9 1.7-8 7.1-13.5 11.9-5.5 4.7-10.1 9.1-10.3 9.6-.2.5.5.9 1.5.9 4.2 0 21.3 9.7 21.3 12.1 0 .8-8.7 13.5-11.2 16.3-.4.6-1.7.2-3-1-5.8-5.1-12.6-7.5-21.2-7.5-10.9 0-17.9 5.4-18.2 14.1-.4 9.2 5.6 15.1 23.7 23 20.4 9 27.6 14.4 32.4 24.5 2.3 4.8 3.2 8.5 3.4 13.2.1 1.7 1.2.9 6.4-4.5 6-6.4 11.4-12.4 16.7-18.8 5.9-7.1 19.4-26.3 25.4-36.3l6.6-10.9-.2-48.2-.3-48.2-8.5 6.7z"/><path d="M82.9 53.9c-.2 20.5 0 34.3.4 34.7 1 1 20.9.4 24.6-.7 12-3.6 18-14.1 14.5-25.7-1.6-5.5-3.5-7.6-9.3-10.4-3.9-1.9-6.4-2.2-17.3-2.4L83 49.3l-.1 4.6zM45.4 74.3C33 87.1 13 108.4 4.2 118.1L0 122.7v89.4l2.3-.6c4.8-1.5 27.3-11.7 35.5-16.1 16.6-9.1 36.8-23.2 76.1-53.1 2.7-2.1 4.8-4.4 4.6-5.1-.3-.7-4.6-6.9-9.7-13.7-10.2-13.8-8-12.5-20.8-12.7-2.2-.1-4.3.1-4.6.4-.3.3-.6 11.4-.6 24.7l-.2 24.1H59.5l.1-49.5c.1-27.2-.2-49.5-.6-49.5-.4 0-6.5 6-13.6 13.3zM114.5 166.7c-7.9 5.9-29.1 19.9-38.5 25.5-23.3 13.6-42.6 21.4-71.2 28.8L0 222.3V260h137.1l8-3.7c7.8-3.5 8.8-5.2 3.1-5.3-1.2 0-5.7-1.3-10-3-8.1-3.1-15.9-8.6-18.7-13.3l-1.7-2.8 5.8-7c3.1-3.8 6.1-7.2 6.6-7.5.5-.4 2.6.9 4.6 2.8 5 4.7 7.9 6.3 15.2 8.8 19.7 6.7 36.2-5.2 28.8-20.6-2.8-5.6-6.7-8.2-29.2-18.9-13.9-6.8-23-14.6-26.1-22.8-1-2.6-2-4.7-2.4-4.6-.3 0-3.3 2.1-6.6 4.6z"/></svg>