<?xml version="1.0" encoding="utf-8"?>
<!-- Generator: Adobe Illustrator 19.0.0, SVG Export Plug-In . SVG Version: 6.00 Build 0)  -->
<svg version="1.1" id="Layer_1" xmlns="http://www.w3.org/2000/svg" xmlns:xlink="http://www.w3.org/1999/xlink" x="0px" y="0px"
	 viewBox="27 -6 553.4 512" enable-background="new 27 -6 553.4 512" xml:space="preserve">
<path fill="#D0E86D" d="M517.3,101.4c-28.6,0-51.9,23.3-51.9,51.9c0,2.7,0.2,5.4,0.6,8.1l-56.4,18.2c-19.1-37-57.7-62.3-102.1-62.3
	c-3.9,0-7.8,0.2-11.6,0.6l-4.4-24.3c18.4-8,31.4-26.4,31.4-47.7C322.9,17.3,299.6-6,271-6s-51.9,23.3-51.9,51.9s23.3,51.9,51.9,51.9
	l4.4,24.1c-32.8,9.6-59.5,33.5-73,64.4l-45.7-14.2c0.2-2,0.3-4.1,0.3-6.2c0-35.8-29.1-65-65-65s-65,29.1-65,65s29.1,65,65,65
	c26.4,0,49.1-15.8,59.3-38.4l44.5,13.9c-1.9,8.3-2.9,16.9-2.9,25.8c0,29.5,11.2,56.5,29.6,76.8l-54.4,70.1c-9.2-5-19.7-7.8-30.8-7.8
	c-35.8,0-65,29.1-65,65s29.1,65,65,65c35.8,0,65-29.1,65-65c0-17.1-6.7-32.7-17.6-44.3l53.3-68.6c19.3,14.8,43.5,23.7,69.7,23.7
	c26.8,0,51.4-9.2,71-24.6l19.1,20.3c-8.3,10.9-13.2,24.5-13.2,39.2c0,35.8,29.1,65,65,65s65-29.1,65-65s-29.1-65-65-65
	c-13.5,0-26.1,4.2-36.5,11.3L394,308.1c17.8-20.2,28.6-46.7,28.6-75.7c0-11.5-1.7-22.5-4.8-33l56-18c9.2,14.5,25.4,24.2,43.9,24.2
	c28.6,0,51.9-23.3,51.9-51.9S546,101.4,517.3,101.4z M115.4,181.4l15.5,4.8c-7.3,14.1-22.1,23.8-39,23.8c-24.2,0-44-19.7-44-44
	s19.7-44,44-44c24.1,0,43.8,19.6,43.9,43.7l-14.2-4.4c-5.5-1.7-11.4,1.4-13.1,6.9C106.8,173.7,109.9,179.6,115.4,181.4z
	 M137.1,392.3c1.3,0,2.6,0.1,3.8,0.2c-25.1,2-44.8,23-44.8,48.6c0,6.5,1.3,12.6,3.6,18.3c-4.2-6.7-6.6-14.6-6.6-23.1
	C93.1,412,112.9,392.3,137.1,392.3z M449.3,337.8c1.8,0,3.6,0.1,5.3,0.3c-24.3,2.8-43.1,23.4-43.1,48.4c0,10.7,3.5,20.6,9.3,28.6
	c-9.5-8.1-15.5-20.1-15.5-33.5C405.4,357.6,425.1,337.8,449.3,337.8z M239.9,45.9c0-17.1,13.9-30.9,30.9-30.9c1.3,0,2.6,0.1,3.8,0.2
	c-16.5,3.3-28.9,17.9-28.9,35.4c0,7.1,2.1,13.7,5.6,19.3C244.4,64.3,239.9,55.6,239.9,45.9z M379.2,292.5l-21.6-22.9
	c-4-4.2-10.6-4.4-14.8-0.4c-4.2,4-4.4,10.6-0.4,14.8l21.6,22.9c-15.7,11.9-35.3,19-56.5,19c-21.4,0-41.1-7.2-56.8-19.2l18.2-23.4
	c3.6-4.6,2.7-11.2-1.9-14.7c-4.6-3.6-11.2-2.7-14.7,1.9l-16.8,21.7c-13.5-16.3-21.7-37.2-21.7-59.9c0-9.1,1.3-17.9,3.7-26.3
	c0.7-0.9,1.3-2,1.7-3.2c0.3-1.1,0.5-2.2,0.5-3.2c13.3-35.6,47.7-61.1,87.9-61.1c51.7,0,93.8,42.1,93.8,93.8
	C401.3,255.1,393,276.2,379.2,292.5z M517.3,184.3c-17.1,0-30.9-13.9-30.9-30.9c0-17.1,13.9-30.9,30.9-30.9s30.9,13.9,30.9,30.9
	C548.3,170.5,534.4,184.3,517.3,184.3z"/>
<path fill="#009D37" d="M528.3,106.3c-28.6,0-51.9,23.3-51.9,51.9c0,2.7,0.2,5.4,0.6,8.1l-56.4,18.1c-19.1-37-57.7-62.3-102.1-62.3
	c-3.9,0-7.8,0.2-11.6,0.6l-4.4-24.3c18.4-8,31.4-26.4,31.4-47.7c0-28.6-23.3-51.9-51.9-51.9s-51.9,23.3-51.9,51.9
	s23.3,51.9,51.9,51.9l4.4,24.1c-32.8,9.6-59.5,33.5-73,64.4L167.5,177c0.2-2,0.3-4.1,0.3-6.2c0-35.8-29.1-65-65-65s-65,29.1-65,65
	s29.1,65,65,65c26.4,0,49.1-15.8,59.3-38.4l44.5,13.9c-1.9,8.3-2.9,16.9-2.9,25.8c0,29.5,11.2,56.5,29.6,76.8L178.9,384
	c-9.2-5-19.7-7.8-30.8-7.8c-35.8,0-65,29.1-65,65s29.1,65,65,65c35.8,0,65-29.1,65-65c0-17.1-6.7-32.7-17.6-44.3l53.3-68.6
	c19.3,14.8,43.5,23.7,69.7,23.7c26.8,0,51.4-9.2,71-24.6l19.1,20.3c-8.3,10.9-13.2,24.5-13.2,39.2c0,35.8,29.1,65,65,65
	s65-29.1,65-65s-29.1-65-65-65c-13.5,0-26.1,4.2-36.5,11.3L404.8,313c17.8-20.2,28.6-46.7,28.6-75.7c0-11.5-1.7-22.5-4.8-33l56-18
	c9.2,14.5,25.4,24.2,43.9,24.2c28.6,0,51.9-23.3,51.9-51.9S557,106.3,528.3,106.3z M250.9,50.8c0-17.1,13.9-30.9,30.9-30.9
	c17.1,0,30.9,13.9,30.9,30.9c0,11-5.7,20.6-14.3,26.1l-2.3-12.6c-1-5.7-6.5-9.5-12.2-8.4c-5.7,1-9.5,6.5-8.4,12.2l2.5,13.4
	C262.7,79.5,250.9,66.5,250.9,50.8z M102.9,214.7c-24.2,0-44-19.7-44-44s19.7-44,44-44c24.1,0,43.8,19.6,43.9,43.7l-14.2-4.3
	c-5.5-1.7-11.4,1.4-13.1,6.9s1.4,11.4,6.9,13.1l15.5,4.8C134.5,205.1,119.8,214.7,102.9,214.7z M148.1,485c-24.2,0-44-19.7-44-44
	s19.7-44,44-44s44,19.7,44,44S172.3,485,148.1,485z M504.3,386.6c0,24.2-19.7,44-44,44s-44-19.7-44-44s19.7-44,44-44
	S504.3,362.4,504.3,386.6z M390.2,297.3l-21.6-22.9c-4-4.2-10.6-4.4-14.8-0.4c-4.2,4-4.4,10.6-0.4,14.8l21.6,22.9
	c-15.7,11.9-35.3,19-56.5,19c-21.4,0-41.1-7.2-56.8-19.2l18.2-23.4c3.6-4.6,2.7-11.2-1.9-14.7c-4.6-3.6-11.2-2.7-14.7,1.9L246.5,297
	c-13.5-16.3-21.7-37.2-21.7-59.9c0-9.1,1.3-17.9,3.7-26.3c0.7-0.9,1.3-2,1.7-3.2c0.3-1.1,0.5-2.2,0.5-3.2
	c13.3-35.6,47.7-61.1,87.9-61.1c51.7,0,93.8,42.1,93.8,93.8C412.3,259.9,404,281,390.2,297.3z M528.3,189.2
	c-17.1,0-30.9-13.9-30.9-30.9c0-17.1,13.9-30.9,30.9-30.9s30.9,13.9,30.9,30.9C559.3,175.3,545.4,189.2,528.3,189.2z"/>
</svg>
