<?xml version="1.0" encoding="utf-8"?>
<!-- Generator: Adobe Illustrator 19.0.0, SVG Export Plug-In . SVG Version: 6.00 Build 0)  -->
<svg version="1.1" id="Layer_1" xmlns="http://www.w3.org/2000/svg" xmlns:xlink="http://www.w3.org/1999/xlink" x="0px" y="0px"
	 viewBox="6 -6 512 512" enable-background="new 6 -6 512 512" xml:space="preserve">
<g>
	<g>
		<g>
			<path fill="#D0E86D" d="M428.5,252.4c-1.2,90.6-75.4,165.1-168.4,164.1c-91.4-1-166-76-164.5-169.3
				C97,156.4,171.3,83.3,262.2,83.5C354,83.4,429.8,158.6,428.5,252.4z M506,255.5C503.2,387.6,395.2,494,262,494
				C127.5,494.1,17.9,385,18,249.7C18.1,114.2,129.2,3.3,267.2,6.1C399.8,8.7,508.9,118.2,506,255.5z M498.8,250
				C499,121,395.5,16,267.5,13.2c-134.4-3-242.2,105.4-242.3,236.5c-0.1,129.6,103.8,234.7,232,237.2
				C391.3,489.5,499.2,381.1,498.8,250z"/>
			<path fill="#D0E86D" d="M124.6,371.3c1.4,1.4,1.4,2.3,0.1,3.7c-6,6.6-11.9,13.3-17.9,19.9c-3.2,3.6-3.3,3.6-6.5-0.1
				c-23.2-26.1-39.4-56-48.4-89.8c-0.6-2.1,0-2.5,2-2.5c5.1,0.1,10.1,0,15.2,0c5.1,0,10.1,0.1,15.2,0c1.6,0,2.2,0.6,2.7,2
				c6.7,21.8,17.4,41.6,31.6,59.5C120.5,366.6,122.4,369,124.6,371.3z M399.1,375.1c6.7,7,13.4,13.9,20,21c1.5,1.6,2.1,1.6,3.6,0
				c12.6-14,23.4-29.3,32.1-46c7.5-14.3,13.2-29.3,17.4-44.9c0.7-2.7,0.7-2.7-2.1-2.7c-4.9,0-9.8,0-14.7,0c-5,0-10,0.1-15-0.1
				c-2-0.1-2.7,0.5-3.3,2.4c-7.8,25-20.6,47.2-38,66.8C397.7,373.2,398,374,399.1,375.1z"/>
		</g>
	</g>
	<path fill="#D0E86D" d="M280.5,66.5c1.9-11.2,3.8-22.3,5.6-33.5c0.2-1.2,0.3-1.8,1.9-1.6c8.1,1.4,16.1,2.7,24.2,4
		c0.2,0,0.6,0,0.7,0.1c1.3,2.1-0.3,4.1-0.3,6.1c0,1.1-0.7,1.3-1.3,1.1c-5.4-0.9-10.5-1.7-15.5-2.6c-1.5-0.3-2.2,0-2.3,1.6
		c-0.1,2.2-1.8,4.9-0.7,6.5c1.1,1.6,4.1,1,6.3,1.5c2.6,0.5,5.2,0.9,7.8,1.3c1.2,0.2,1.5,0.6,1.3,1.9c-0.9,5-0.8,5-5.8,4.3
		c-3-0.5-6-0.9-9-1.5c-1.6-0.3-2.4-0.2-2.6,1.8c-0.4,4-1.3,7.9-1.9,11.9c-0.2,1.4-0.6,2.2-2.3,1.6c-1-0.4-2.2-0.4-3.3-0.6
		C279.9,69.8,279.9,69.8,280.5,66.5z M138,412.7c-3-1.7-5.5-4.2-8.2-6.3c-1.2-1-1.8-1.1-2.8,0.2c-2.1,2.8-4.5,5.5-6.6,8.3
		c-0.7,0.9-1.2,1-2.1,0.2c-1.5-1.3-3.1-2.6-4.7-3.8c-0.8-0.6-0.8-1.1-0.2-1.9c7.7-9.4,15.4-18.8,23-28.3c0.7-0.9,1.2-0.9,2.1-0.2
		c4.3,3.5,8.6,7,12.9,10.5c3.1,2.6,5.4,5.8,5.3,11C156.7,411.3,146.4,417.3,138,412.7z M148.6,400.6c0-1.4-0.6-2.5-1.4-3.5
		c-1.9-2.2-4.4-3.7-6.5-5.7c-0.9-0.8-1.2,0-1.7,0.5c-1.8,2.2-3.7,4.5-5.5,6.7c-0.5,0.6-1,1.1-0.1,1.8c2.4,1.8,4.4,4,7.1,5.3
		C144.1,407.6,148.6,404.7,148.6,400.6z M181.5,433.8c3,3.6,2,7.2,0.6,10.7c-1.2,2.8-2.6,5.5-2.8,8.8c-2.3-1.2-4.5-2.3-6.7-3.3
		c-1-0.5-0.9-1.2-0.6-2c0.8-2.2,1.6-4.4,2.4-6.6c1.9-5.1,1.1-7.1-3.6-9.5c-2.1-1.1-4.7-3.3-6.4-2.8c-2,0.6-2.5,4-3.7,6.2
		c-0.2,0.3-0.3,0.6-0.4,0.9c-3.3,6.6-3.3,6.5-9.7,2.7c-1-0.6-0.9-1.1-0.5-1.9c5.5-10.8,11-21.6,16.4-32.5c0.7-1.4,1.3-0.9,2.2-0.4
		c5.8,3,11.6,5.8,17.4,8.9c4.8,2.5,7.2,7.1,6.3,11.7C191.1,430.2,187.7,433.2,181.5,433.8z M183.6,422c-0.1-2-1.3-3.3-2.9-4.1
		c-2.6-1.4-5.3-2.7-7.9-4.1c-1-0.5-1.3-0.2-1.8,0.7c-1.2,2.5-2.4,4.9-3.7,7.3c-0.5,0.9-0.4,1.3,0.6,1.8c2.6,1.2,5.1,2.6,7.8,3.8
		C179.7,429.2,183.6,426.5,183.6,422z M223.8,463.8c0.1,0.8,0.3,1.6-0.2,2.5c-2.4-0.7-4.9-1.4-7.4-2c-0.7-0.2-1.1-0.5-1-1.3
		c0-0.2,0-0.3,0-0.5c-0.2-2.5,0.6-5.7-1-7.4c-1.5-1.5-4.6-1.6-7-2.2c-2.2-0.6-4.6-2-6.4-1.4c-1.7,0.6-2.8,3.2-3.8,5.1
		c-1,1.8-2.2,2.2-4,1.5c-1.9-0.7-3.8-1.1-6-1.7c4.2-5.8,8.2-11.4,12.3-17c3.7-5.2,7.5-10.3,11.1-15.5c0.8-1.1,1.5-1.6,3-1.1
		c2.1,0.8,4.8,0.7,6.3,2c1.6,1.4,0.8,4.3,1.1,6.5C221.8,442.1,222.8,453,223.8,463.8z M214.2,447.9c-0.4-5.1-0.7-9.7-1.1-14.9
		c-2.8,4-5.2,7.6-7.7,11.1c-0.5,0.7-0.8,1.3,0.4,1.5C208.5,446.4,211.2,447.1,214.2,447.9z M234.7,68.8c-2.5-10-4.9-20.1-7.4-30.2
		c-0.5-2-0.2-4.9-1.9-5.6c-1.6-0.7-4,0.7-6,1.1c-1.1,0.2-1.5,0.7-1.2,2c0.9,3.2,1.6,6.5,2.4,9.8c1,4.3,2.1,8.6,3.1,12.9
		c-1-0.3-1.6-0.8-2.2-1.3c-5.1-5-10.4-9.6-15.1-15c-3.3-3.8-6.5-4.5-10.8-2.7c-0.1,0.1-0.3,0.1-0.5,0.1c-1.3,0.2-1.6,0.7-1.2,2.1
		c2.5,10,4.9,20.1,7.4,30.2c0.5,2,0.3,5,1.8,5.7c1.4,0.7,3.9-0.6,6-1c1.2-0.2,1.8-0.6,1.3-2.1c-0.8-2.6-1.3-5.3-2-7.9
		c-1.2-5-2.4-9.9-3.6-14.9c0.9,0,1.2,0.5,1.6,0.9c5.1,5,10.5,9.8,15.2,15.2c3.4,3.9,6.7,5.2,11.3,3c0.1,0,0.2,0,0.2-0.1
		C234.8,70.9,235.1,70.3,234.7,68.8z M268.2,443.3c2.1,0.5,2.5-0.5,2-2.3c-0.5-2.2-1.4-4.3-2.8-6.1c-5.6-7.3-18-8.6-25.7-2.7
		c-7.2,5.5-9.8,17.4-5.8,26.4c3.3,7.3,10.2,11.3,19,10.8c6.8-0.4,12.4-4.7,14.5-11.5c1.2-3.7,1.2-3.7-2.8-3.9c-0.9,0-1.8,0-2.7-0.1
		c-1.5-0.2-2.3,0.2-2.7,1.8c-0.9,3.4-3.1,5.7-6.6,6.3c-3.6,0.6-6.9-0.4-9.3-3.4c-4.1-5.1-3.4-15.6,1.2-20.1
		c4.5-4.4,12.5-3.1,14.7,2.7c0.7,1.7,1.6,2.1,3.1,2.1c0.7,0,1.4,0,2.2,0v0.1C267.3,443.3,267.8,443.3,268.2,443.3z M163.5,56
		c-0.2-1.8,0.2-2.8,2-3.7c5.9-2.7,5.8-2.8,10.5,1.8c8.4,8.1,16.8,16.2,25.5,24.5c-2.5,1.2-4.7,2.1-6.8,3.3c-1.1,0.6-1.7,0.3-2.5-0.5
		c-1.4-1.5-2.8-2.9-4.2-4.3c-0.7-0.8-1.4-1-2.4-0.5c-3.4,1.7-6.8,3.3-10.2,4.9c-1.1,0.5-1.5,1.2-1.3,2.4c0.3,2.1,0.4,4.2,0.6,6.2
		c0.1,0.7,0.1,1.3-0.6,1.6c-2.3,1.1-4.6,2.2-7.2,3.4c-0.5-5.8-1-11.3-1.4-16.8C164.8,70.9,164.2,63.5,163.5,56z M171.5,60.9
		c0.5,4.9,1,9.5,1.6,14.4c3.1-1.5,5.9-2.8,9-4.3C178.5,67.5,175.1,64.3,171.5,60.9z M83.6,219.3c3.1,13.8-7.7,25.6-21.8,23.8
		c-3-0.4-6-1.1-8.7-2.5c-6.6-3.4-10.1-9.1-10.1-16.5c0-12.8,10.1-21.2,23-19.2C75.4,206.2,81.9,211.5,83.6,219.3z M71.1,215.3
		c-4.4-2.2-9-2.8-13.8-1.4c-4.1,1.2-6.4,4.2-6.9,8.4c-0.5,4.3,1.2,7.5,4.9,9.7c2.9,1.7,6.1,2.4,10,2.6c0.8-0.1,2-0.2,3.3-0.5
		c4.5-1,7.3-3.9,7.9-8.2C77.1,221.2,75.3,217.4,71.1,215.3z M94.5,175.9c0.3,1.4,0.4,2.7,0.4,4.1c-0.5,7.9-3.4,14.5-10.9,17.9
		c-8.4,3.8-16.3,1.7-23.2-3.8c-12.7-10.1-6-27.3,3.4-31.8C75.6,156.8,91.5,163.8,94.5,175.9z M83.6,173.3c-3.5-2.9-7.5-4.3-12-4.4
		c-4.5-0.1-8,2.3-9.5,6.4c-1.6,4.3-0.7,8.3,2.9,11.3c3.4,2.9,7.4,4.4,11.3,4.6c5.4,0.1,8.8-2.3,10.4-6.6
		C88.3,180.2,87.3,176.3,83.6,173.3z M77,255.6c4.1-1.2,4-1.2,3.8-4.8c-0.1-1.7-0.7-2-2.3-1.8c-5.8,0.6-11.7,1.1-17.6,1.5
		c-1.3,0.1-1.6,0.7-1.5,1.9c0.4,4.2,0.8,8.5,1.1,12.7c0.1,1.7,0.7,2.1,2.4,1.9c4.4-0.5,4.4-0.4,3.9-4.8c-0.1-0.6-0.1-1.1-0.1-1.7
		c-0.2-2.6,0.2-2.9,2.8-2.1c3.4,1,5.2,3.3,5.8,6.7c0.8,4.2-0.1,8-3.9,10.4c-5.2,3.3-10.9,3.8-16.6,1.4c-6-2.6-7.8-11.5-2.8-14.9
		c2.9-1.9,3.2-3.8,2.6-6.6c-0.1-0.5-0.1-1.1-0.1-1.7c0-1.5-0.4-2-2-1.5c-2.1,0.7-4,1.7-5.6,3.2c-6.2,5.8-6.8,17.1-1.1,24.3
		c5.1,6.4,12.1,8,19.7,7s13.6-4.6,16.3-12.2C84.4,267.4,83.6,260.9,77,255.6z M273.1,44.3c0-3.1,0.1-6.1,0-9.2c-0.1-5-0.2-5-5.3-5
		c-3.8,0-3.5-0.9-3.4,3.7c0.1,7.3,0.5,14.6,0.5,21.9c0,5.1-2.5,7.2-7.9,7.2c-5.2,0-7.8-2.2-8-7.2c-0.2-6.3-0.4-12.5-0.5-18.8
		c-0.1-6.5,0-6.5-6.6-6.4c-1.8,0-2.3,0.6-2.3,2.4c0.3,7.7,0.4,15.4,0.6,23.1c0.3,7.8,4.7,12.9,12.4,13.9c3.1,0.4,6.2,0.4,9.4-0.3
		c7.3-1.6,11.4-6.6,11.5-14c0-3.9,0-7.7,0-11.6C273.4,44.3,273.2,44.3,273.1,44.3z M110.9,151.1c-2.8,4.4-5.7,8.7-8.5,13.1
		c-0.8,1.2-1.3,1.1-2.4,0.4c-9.9-6.5-19.9-13-29.9-19.5c-1.1-0.7-1.4-1.2-0.6-2.4c3-4.5,5.8-9,8.9-13.5c3.3-4.8,7.8-7.6,15.6-7.5
		c8.4,0,19.1,9.3,19.8,18.8C114.1,144.5,112.9,147.9,110.9,151.1z M105.8,142.2c0-1.3-0.5-3-1.6-4.4c-2.8-3.8-6.5-6.1-11.1-7.2
		c-3-0.7-5.7,0.2-7.9,2.4c-2,1.9-3.1,4.3-4.7,6.4c-0.9,1.2-0.7,1.8,0.6,2.6c5,3.1,9.8,6.4,14.7,9.6c1.3,0.9,2.8,2.5,4,2.3
		c1.4-0.2,2-2.5,2.9-3.9C104.3,147.8,105.8,145.6,105.8,142.2z M128.8,117.2c1.3,1.6,2.4,4.5,4,4.4c1.8-0.1,3.4-2.4,5.2-3.7
		c1.1-0.8,1-1.3,0.2-2.2c-1.4-1.6-2.7-3.4-4.1-5.1c-3.6-4.5-7.2-9-10.8-13.6c1.2-0.3,1.7,0.4,2.4,0.8c5.8,3.6,11.6,7.2,17.4,10.9
		c3.6,2.3,3.5,2.2,7-0.4c1.6-1.2,1.7-2.2,1.1-3.9c-2.8-7.6-5.5-15.3-8.2-23c1.2-0.3,1.4,0.6,1.9,1.2c3.5,4.4,7.1,8.8,10.6,13.2
		c1.3,1.6,2.7,4.5,4,4.5c1.7,0,3.4-2.4,5.2-3.6c1.1-0.7,1-1.3,0.3-2.3c-7.5-9.3-15-18.7-22.5-28.1c-0.9-1.1-1.5-1-2.5-0.2
		c-2.2,1.9-4.5,3.7-6.8,5.4c-1.1,0.8-1.2,1.6-0.7,2.8c2.8,7.2,5.6,14.4,8.3,21.6c0.3,0.8,1,1.6,0.6,2.7c-7.3-4.6-14.5-9.2-21.8-13.9
		c-1.1-0.7-1.8-0.8-2.9,0.1c-2.1,1.9-4.3,3.6-6.6,5.3c-1.4,1-1.4,1.6-0.4,2.9C115.9,101.1,122.3,109.1,128.8,117.2z M472.6,194.7
		c0.7-0.2,2,0,1.6-1.9c-0.4-1.4-1.1-3.3-1.4-5.1s-1.2-1.8-2.6-1.4c-10.1,2.9-20.2,5.8-30.3,8.6c-5.3,1.5-5.3,1.4-3.9,6.6
		c0.2,0.6,0.4,1.2,0.5,1.9c0.2,1.2,0.7,1.4,1.8,1c2-0.6,4-1.2,6-1.7C453.7,200,463.1,197.4,472.6,194.7z M441.5,186.6
		c-2.7,1.4-5.5,2.7-7.7,5.1c-1.1-2.3-2-4.5-3.1-6.7c-0.5-1.1-0.1-1.7,0.7-2.2c2.1-1.3,4.1-2.5,6.2-3.7c4.4-2.7,5.1-4.7,3-9.4
		c-0.8-1.7-1.6-3.3-2.2-5.1s-1.5-1.8-3-1.1c-3.3,1.6-6.8,3-10.1,4.6c-1.5,0.8-2.1,0.3-2.6-1.1c-0.7-2.1-3-4.3-2.2-6
		c0.7-1.5,3.6-2,5.6-2.9c9.2-4.2,18.5-8.3,27.7-12.5c1.5-0.7,2.1-0.6,2.8,1c2.5,5.8,5.2,11.6,7.8,17.4c3.3,7.4-0.3,14.3-8.2,16
		c-2.7,0.6-4.1,0.2-8.4-2.1C447.9,182.6,444.9,184.8,441.5,186.6z M443.5,160.7c1.8,3.5,2.6,7.6,5.5,10.6c1.6,1.7,3.7,1.2,5.6,0.4
		s3.2-2.2,3.3-4.3c0-0.3,0-0.5-0.1-0.7c-1-3.6-2.9-6.8-4.3-10.2c-0.4-1-1.1-0.4-1.6-0.2c-2.5,1.1-5,2.2-7.4,3.4
		C443.9,159.9,443.1,160,443.5,160.7z M394.5,83.5c2,1.7,3.8,3.7,5.9,5.3c1.4,1.1,1.5,1.8,0.2,3.1c-5.3,5.5-10.4,11.2-15.5,16.8
		c-1.5,1.6-4,3.2-4,4.9c0,1.9,3,3,4.4,4.7c1.2,1.4,1.9,0.9,2.9-0.2c6.2-6.8,12.5-13.6,18.7-20.5c1.2-1.3,1.8-1.2,2.9-0.1
		c1.2,1.3,2.6,2.4,3.9,3.6c3.2,2.9,3.2,2.9,6.1-0.3c0.6-0.7,1.3-1.4,2.2-2.5c-0.6-0.4-1.1-0.6-1.5-1c-6.1-5.6-12.2-11.2-18.3-16.8
		c-1.3-1.2-2.6-3.6-4.1-3.3c-1.6,0.3-2.7,2.6-4,3.9C393.5,82.2,393.7,82.8,394.5,83.5z M470.3,251.1c-2.3-1-4.7-1.6-7.2-1.8
		c-7.9-0.6-14.9,1.4-19.2,8.4c-4.1,6.6-4.7,13.4,0.8,19.7c-0.4,0.6-0.9,0.6-1.4,0.5c-2.2-0.3-2.9,0.8-2.8,2.8c0,0.5,0,1-0.1,1.4
		c-0.2,1.2,0.1,1.7,1.4,1.8c6,0.5,12,1,18,1.7c1.4,0.1,1.7-0.4,1.7-1.6c0.3-3.8,0.7-7.7,1-11.5c0.3-3.4,0.2-3.3-3.3-3.7
		c-2.2-0.3-3.4,0.1-3.2,2.7c0.1,1.2-0.3,2.4-0.2,3.6c0.1,2.1-0.8,2.2-2.5,1.5c-3.1-1.3-4.9-3.6-5.2-7c-0.3-4.2,0.9-7.8,4.8-10.1
		c5-2.9,13.9-2,18.2,1.7c4.7,4.1,4.4,12.5-0.9,14.7c-2.9,1.2-3.6,2.8-3.5,5.4c0,0.7-0.1,1.4-0.2,2.2c-0.2,1.4,0.1,2.1,1.8,1.8
		c2.4-0.4,4.7-1.1,6.7-2.6c5.5-4.1,7.3-9.9,6.8-16.4C481.1,259.1,477,254,470.3,251.1z M443.5,136.7c1.6-1.2,4.1-2.2,4.5-3.7
		c0.4-1.6-2-3.2-3.1-4.8c-0.1-0.2-0.3-0.4-0.4-0.6c-0.8-1.5-1.6-1.3-2.8-0.4c-5.1,3.8-10.2,7.6-15.3,11.3c-1.7,1.3-3.4,2.7-5.4,3.6
		c-1.8,0.8-3.6,1-5.3,0c-6.4-3.5-7-10.3-1.2-14.6c4.6-3.5,9.3-6.9,14-10.3c1.8-1.3,4.9-2.3,4.9-4.2c0-1.9-2.4-3.8-3.7-5.7
		c-0.7-1-1.2-1-2.1-0.3c-6.4,4.8-12.8,9.4-19.2,14.3c-2.8,2.1-5,4.8-5.8,8.3c-1.7,7.6,5.2,18.5,13.3,20.9c1.1,0.3,2.2,0.4,3.3,0.5
		c3.7,0,6.9-1.5,9.8-3.6C433.8,143.9,438.7,140.3,443.5,136.7z M442.3,219c4.3-0.6,8.6-1.2,12.9-1.7c3.3-0.4,6.7-0.8,10-1.2
		c-6,5.4-12,10.3-18.1,15.2c-5.4,4.4-5.3,4.4-4,11.2c0.2,1.2,0.6,1.4,1.7,1.2c2.7-0.4,5.4-0.7,8.1-1c9.2-1.1,18.3-2.3,27.5-3.4
		c1.2-0.1,1.6-0.5,1.5-1.8c-0.3-6.5-0.3-6.5-6.6-5.8c-0.6,0.1-1.1,0.2-1.7,0.2c-5.9,0.7-11.7,1.5-17.6,2.2c0-0.2-0.1-0.3-0.1-0.5
		c6.1-5,12.2-9.9,18.3-14.9c5-4.1,4.9-4.1,4-10.5c-0.2-1.5-0.6-2-2.2-1.7c-10.8,1.4-21.5,2.7-32.3,4.1c-4.6,0.6-4.6,0.6-4,5.4
		c0,0.4,0.1,0.8,0.1,1.2C439.8,219,440.7,219.3,442.3,219z M406.8,404.6c-4.5,3.8-9.1,7.5-13.6,11.3c-1,0.8-1.5,0.8-2.3-0.2
		c-1.3-1.7-2.6-3.3-4-4.8c-0.9-1-0.7-1.5,0.3-2.3c3.3-2.6,6.5-5.3,9.7-8c3.7-3.1,3.7-3.1,0.5-6.9c-0.9-1.1-1.5-1.3-2.6-0.3
		c-3.3,2.9-6.7,5.6-10,8.3c-3.1,2.6-3.1,2.6-5.6-0.4c-0.4-0.5-0.8-1-1.3-1.5c-1.2-1.2-1.5-2.1,0.2-3.3c3.4-2.6,6.6-5.4,9.9-8.1
		c4.5-3.7,4.6-3.7,0.6-8.1c-0.1-0.1-0.1-0.1-0.2-0.2c-0.6-0.9-1.2-0.8-1.9-0.1c-6.8,5.7-13.6,11.3-20.5,16.9
		c-0.8,0.6-0.9,1.1-0.2,1.9c7.8,9.4,15.5,18.7,23.2,28.1c0.3,0.3,0.5,0.9,1.2,0.8c0.4-0.3,0.8-0.7,1.2-1c5.8-4.8,11.5-9.5,17.3-14.3
		c4.2-3.5,4.2-3.4,0.6-7.7C408.5,403.7,407.9,403.6,406.8,404.6z M316.9,70.3c-1.2,1.6-2.5,3.1-3.7,4.7c-0.7,0.9-1.3,1.1-2.4,0.6
		c-1.7-0.7-3.4-1.4-5.2-1.8c-1.7-0.4-1.3-1-0.5-2c6.8-8,13.5-16,20.2-24c0.4-0.4,0.7-0.9,1.1-1.3c4.7-5.7,4.7-5.7,11.7-2.8
		c1,0.4,1.2,1,1.2,2c0,6.4,0,12.9,0,19.3c0.2,0,0.4,0,0.7,0c0,6.4,0,12.9,0,19.3c0,1.2-0.1,1.8-1.4,1.1c-0.1,0-0.1-0.1-0.2-0.1
		c-2.2-0.8-5-1-6.4-2.5c-1.5-1.6-0.3-4.5-0.3-6.8c0-1.7-0.4-2.5-2.1-3c-3.4-1-6.7-2.2-10-3.5C318.3,69.1,317.6,69.2,316.9,70.3z
		 M322.3,63.6c3.2,1.1,6.2,2.2,9.2,3.2c0-4.9,0-9.6,0-14.6C328.3,56.1,325.4,59.7,322.3,63.6z M357.9,98c7,3.3,14.2,1.8,19.6-4
		c1.2-1.3,1.6-2.1-0.3-3.1c-1.3-0.6-2.5-1.4-3.7-2.3c-1.2-0.8-1.9-0.8-3,0.3c-2.2,2.4-5,3.6-8.3,2.6c-3.6-1.1-6.2-3.4-7.1-7.2
		c-1.5-6.4,4.6-16.2,10.9-17.6c6.1-1.4,12.1,3.4,11.4,9.6c-0.2,2,0.5,2.7,1.9,3.4c0.4,0.2,0.8,0.5,1.2,0.7c4.1,2.5,4.6,2.2,5.1-2.7
		c0-0.2,0-0.5,0.1-0.7c0.5-9.7-8.3-18.3-19.1-18.3c-0.9,0.1-2.3,0.2-3.6,0.6c-8.4,2.1-15.1,10.1-16.3,19.5
		C345.7,86.8,350.2,94.4,357.9,98z M306.3,424.9c-0.9,0.1-1.3,0.1-1.7,0.2c-8,1.3-16,2.6-24,3.9c-5.6,0.9-5.6,0.9-4.4,6.6
		c0.2,1.2,0.6,1.6,1.9,1.3c2.4-0.5,4.8-0.7,7.1-1.3c2.2-0.5,3-0.1,3.3,2.3c1.2,8.5,2.7,17,4,25.5c0.5,3.2,0.5,3.2,3.5,2.7
		c1.2-0.2,2.4-0.5,3.6-0.5c1.7-0.1,2.1-0.6,1.8-2.4c-1.6-9.1-3-18.2-4.5-27.3c-0.2-1.4-0.1-2.2,1.6-2.3c2.7-0.2,5.4-0.9,8.1-1.3
		c1.4-0.2,1.6-1,1.2-2C307.2,428.5,308.1,426.1,306.3,424.9z M321.8,421.5c-0.2-0.6-0.1-1.6-1.2-1.6c-2,0.7-4.1,1.4-6.2,2
		c-1.3,0.3-1.4,0.9-1.1,2.1c3.7,11.4,7.4,22.9,11,34.4c0.4,1.1,0.9,1.3,1.9,0.9c0.6-0.3,1.2-0.4,1.8-0.6c5-1.6,5-1.6,3.4-6.7
		C328.4,441.8,325.1,431.6,321.8,421.5z M369.2,424.1c-1.4,0.8-2.8,1.6-4.3,2.2s-1.8,1.3-1.4,2.9c1,3.7,0.1,6.9-3.2,9.1
		c-3.5,2.4-7.3,2.9-10.8,0.4c-5.2-3.6-7.8-8.8-7.7-15.1c0.1-6.9,8.4-11.6,13.8-7.6c2.4,1.7,3.8,1.4,5.8,0.1c0.8-0.5,1.7-0.9,2.6-1.3
		c1.2-0.5,1.4-1,0.5-2.1c-2-2.3-4.3-4.1-7.2-5.1c-11.3-3.7-23.9,5.8-23.9,17.9c0,3.2,0.6,6,1.9,9.1c4.3,10,13.2,15,22.7,12.6
		c10.7-2.6,16.4-12.4,13-22.3C370.8,423.8,370.4,423.3,369.2,424.1z"/>
	<path fill="#009D37" d="M260.1,306.3c0.1,5.1,0.1,5.1-4.8,5.1c-1.8,0-2.1,0.6-2.1,2.2c0.1,11.6,0,23.2,0.1,34.7
		c0,1.8-0.4,2.5-2.3,2.5c-5.3-0.1-5.3,0-5.3-5.3c0-4.8,0-9.7,0-14.5c0-5.9-0.1-11.7,0-17.6c0-1.6-0.4-2.3-2-2c-0.2,0-0.3,0-0.5,0
		c-4.7,0-4.6,0-4.7-4.6c0-1.8,0.4-2.3,2.3-2.3c5.9,0.1,11.7,0.1,17.6,0C259.8,304.6,260.1,305,260.1,306.3z M196.3,271.9
		c0.8,2.3,1.6,4.3,2.2,6.2c0.3,1.1,0.9,1.5,2.1,1.5c2.4-0.1,4.8-0.1,7.2,0c1.4,0.1,1.8-0.4,1.8-1.8c-0.1-3.2,0-6.4,0-9.7
		c0-15.6,0-31.2,0-46.9c0-1.2,0.4-2.4-1.7-2.3c-8.4,0.1-16.7,0.1-25.1,0c-1.1,0-1.5,0.3-1.5,1.5c0.1,3.9,0.1,7.7,0,11.6
		c0,1.4,0.5,1.6,1.7,1.5c1.9-0.1,3.9,0.1,5.8-0.1c1.6-0.1,2,0.4,2,2c-0.1,6.4,0,12.9,0,19.3c0,6.2-3.6,9.8-9.7,9.9
		c-6,0-9.8-3.7-9.8-9.8c0-23.8,0-47.7,0-71.5c0-6,3.8-9.8,9.6-9.8c6,0,9.6,3.7,9.6,9.9c0,4.9,0.1,9.8,0,14.7c0,1.6,0.5,2,2,2
		c4.8-0.1,9.7-0.1,14.5,0c1.4,0,2-0.3,1.9-1.8c-0.1-4.9,0.1-9.8-0.1-14.7c-0.2-6.9-1.9-13.4-6.6-18.7c-5.9-6.7-13.6-8.9-22.3-8.8
		c-16.3,0.2-28.2,12-28.2,28.2c0,23.2,0,46.4,0,69.6c0,3.2,0.3,6.4,1.3,9.5c2.9,9.7,9.1,16,19.2,17.8
		C181.7,283,190.4,281.3,196.3,271.9z M271.3,327.7c0-5.9,0-11.9,0-17.8c0-5.2,0-5.1-5.2-5.2c-1.8,0-2.2,0.5-2.2,2.3
		c0.1,12.9,0,25.7,0,38.6c0,5.5,0,5.5,5.6,5.4c1.6,0,1.9-0.5,1.8-2C271.2,341.8,271.3,334.7,271.3,327.7z M236.4,348.4
		c0.8,1.4,0.8,2.5-1.5,2.5c-5.5,0-6.8-1.2-6.8-6.7c0-3.1,0-6.1,0-9.2s-3-4.9-5.8-3.7c-0.9,0.4-0.6,1.2-0.6,1.9
		c0,5.1-0.1,10.3,0,15.4c0,1.7-0.4,2.2-2.1,2.2c-5.5,0-5.5,0.1-5.5-5.3c0-12.7,0.1-25.4-0.1-38.1c0-2.4,0.7-3,2.9-2.8
		c3,0.2,6,0,8.9,0.1c5.9,0.1,9.1,3.2,9.2,9.1c0,2.3,0,4.5,0,6.8c0,4.4-0.3,5.1-3.7,8c2.9,1.5,4,3.8,3.9,6.8c-0.1,2.6,0,5.1,0,7.7
		C235.3,345,235.5,346.7,236.4,348.4z M227.9,318.2C228,318.2,228,318.2,227.9,318.2c0-1.8,0.1-3.6-0.2-5.3c-0.6-2.7-3-1.8-4.8-1.9
		s-1,1.5-1.1,2.3c-0.1,3,0,5.9,0,8.9c0,3.7,0,3.6,3.6,3.2c2.2-0.2,2.4-1.8,2.5-3.4C228,320.8,227.9,319.5,227.9,318.2z M283.8,192.5
		c0.1,0,0.2,0,0.3,0.1c0,0.9,0,1.8,0,2.7c0,27.3,0,54.6-0.1,81.9c0,2,0.5,2.6,2.5,2.5c4.4-0.2,8.9-0.2,13.3,0c2,0.1,2.5-0.5,2.5-2.5
		c-0.1-16.7,0-33.3,0-50c0-22.1,0-44.3,0-66.4c0-1.9-0.5-2.4-2.4-2.4c-7.1,0.1-14.2,0.1-21.3,0c-1.8,0-2.3,0.6-2.6,2.2
		c-1.1,6.8-2.3,13.5-3.4,20.2c-2.5,15.1-5,30.3-7.5,45.5c-0.8,5.1-1.6,10.1-2.3,15.2c-0.1,0-0.2,0-0.3,0c-1-6.9-1.8-13.9-3-20.8
		c-3.4-20.2-6.9-40.4-10.3-60.6c-0.3-1.5-1-1.7-2.3-1.7c-7.3,0-14.7,0.1-22,0c-2,0-2.3,0.7-2.3,2.4c0.1,11,0,22.1,0,33.1
		c0,27.9,0,55.7,0,83.6c0,1.8,0.4,2.3,2.2,2.3c4.2-0.2,8.4-0.2,12.6,0c2.2,0.1,2.6-0.6,2.6-2.7c-0.1-26.7-0.1-53.5-0.1-80.2
		c0-0.9,0-1.7,0-2.7c0.7,0.3,0.6,0.8,0.6,1.1c2,14.3,4.3,28.6,6.7,42.9c2.3,13.2,4.4,26.5,6.6,39.7c0.2,1.2,0.5,1.8,1.9,1.8
		c3.9-0.1,7.7-0.1,11.6,0c1.2,0,1.6-0.4,1.8-1.6c0.9-5.7,2-11.4,3-17.1c3.2-18.7,6.8-37.3,9.5-56.1
		C282.5,200.7,283.2,196.6,283.8,192.5z M180.9,321.1c1.8,0,3.9,0.4,5.4-0.3c1-0.5,0.2-2.7,0.3-4.1c0-0.7,0-1.4,0-2.2
		c-0.1-6.6-3.9-10.7-10.4-10.8c-6.2-0.1-11.2,4.3-11.3,10.4c-0.2,9-0.2,18,0,27c0.1,5.9,4.6,10.1,10.4,10.3c6.6,0.2,10.6-3,11.2-9
		c0.2-1.6,0.1-3.2,0.1-4.8c0-3.4,0-3.4-3.4-3.4c-3.3,0-3.3,0-3.3,3.3c0,1,0,2.1,0,3.1c0,2.8-1.1,4.1-3.6,4.1
		c-2.5,0.1-3.8-1.3-3.8-4.2c-0.1-4.3,0-8.5,0-12.8l0,0c0-4.6-0.1-9.2,0-13.8c0-2.3,1.6-3.6,3.7-3.5c2.2,0,3.5,1.4,3.6,3.7
		c0.1,1.8,0,3.7,0,5.6C179.9,320.5,179.9,321.1,180.9,321.1z M207.9,343.8c-2.6,0.1-5.2,0-7.7,0.1c-1.2,0-1.5-0.3-1.5-1.5
		c0.1-2.9,0-5.8,0-8.7c0-3.7,0-3.7,3.6-3.7c4.2,0,4.1,0,4.1-4.2c0-1.3-0.1-2.1-1.8-2c-1.9,0.1-4.4,0.9-5.6-0.3
		c-1.3-1.3-0.4-3.8-0.4-5.8c0-2.1-0.9-4.8,0.4-6c1.3-1.3,4-0.3,6-0.4c4.8-0.1,4.7,0,4.7-4.8c0-1.4-0.2-2-1.8-1.9
		c-4.9,0.1-9.8,0.1-14.7,0c-1.6,0-2,0.5-2,2c0.1,7,0,14,0,21c0,6.9,0.1,13.8-0.1,20.8c0,2.1,0.6,2.5,2.6,2.5c3.6-0.2,7.2,0,10.9,0
		c5.2,0,5.1,0,5.1-5.2C209.9,344,209.3,343.8,207.9,343.8z M372.2,208.4c0,14.5-8.8,23.3-23.3,23.3c-3.1,0-6.1,0.2-9.2-0.1
		c-2.5-0.2-2.8,0.7-2.8,2.9c0.1,14.2,0,28.3,0.1,42.5c0,2-0.5,2.6-2.5,2.5c-4.8-0.2-9.7-0.2-14.5,0c-2,0.1-2.5-0.4-2.5-2.5
		c0.1-19.4,0.1-38.8,0.1-58.2s0-38.8,0-58.2c0-2,0.6-2.5,2.5-2.5c9.7,0.1,19.3,0,29,0.1c14.2,0,23.2,9,23.2,23.3
		C372.2,190.5,372.2,199.5,372.2,208.4z M353.3,181.2c-0.1-4.2-2.5-6.1-6.8-6.1c-2.6,0-5.2,0.1-7.7,0c-1.5-0.1-1.9,0.3-1.9,1.9
		c0.1,6.2,0,12.4,0,18.6c0,6.3,0.1,12.6,0,18.8c0,1.6,0.5,2,2,2c2.6-0.1,5.1,0,7.7,0c4.1,0,6.5-2,6.6-6.1
		C353.5,200.5,353.4,190.8,353.3,181.2z M356.8,314.2c0.4,9.2,0.4,18.3,0,27.5c-0.3,5.3-3.6,8.6-8.9,8.9c-3.6,0.2-7.2,0.1-10.8,0.2
		c-1.6,0.1-2-0.5-2-2.1c0.1-7.1,0-14.2,0-21.2s0-14,0-21c0-1.4,0.3-2,1.8-1.9c3.3,0.1,6.6,0,9.9,0.1
		C352.7,304.8,356.5,308.3,356.8,314.2z M349.5,315.8c0-1-0.1-1.9-0.6-2.8c-1.3-2.2-3.5-1.7-5.4-1.6c-1.7,0.2-0.8,1.8-0.8,2.7
		c-0.1,4.5,0,9,0,13.5c0,4.9,0,9.8,0,14.7c0,0.7-0.4,1.6,0.9,1.9c3.7,0.8,5.9-0.9,5.9-4.5C349.5,331.7,349.5,323.7,349.5,315.8z
		 M306.5,327.7c0-6,0-12.1,0-18.1c0-4.9,0-4.8-5-5c-2-0.1-2.6,0.4-2.5,2.5c0.1,12.7,0.1,25.4,0.1,38.2c0,5.7,0,5.7,5.7,5.6
		c1.5,0,1.9-0.5,1.9-1.9C306.4,341.8,306.5,334.8,306.5,327.7z M293,304.6c-4.7,0.1-9.5,0.1-14.3,0c-1.6,0-1.8,0.5-1.8,1.9
		c0.1,7,0,14,0,21c0,6,0,11.9,0,17.9c0,5.7,0,5.6,5.8,5.5c1.4,0,1.8-0.5,1.8-1.8c-0.1-4.2,0-8.4,0-12.6c0-5.8,0-5.8,5.6-5.8
		c0.4,0,0.8,0,1.2,0c0.9,0.1,1-0.4,1.1-1.1c0.6-5.1,0.4-5.3-4.7-5.3c-0.6,0-1.1-0.1-1.7,0c-1.3,0.1-1.7-0.5-1.6-1.7
		c0.1-1.8,0-3.7,0-5.6c0-5.8,0-5.8,5.7-5.8c4.9,0,4.8,0,4.8-4.8C295,304.8,294.4,304.6,293,304.6z M329,343.8c-2.6,0.1-5.1,0-7.7,0
		c-0.9,0-1.7,0-1.7-1.3c0.1-3.7,0-7.4,0-11.1c0-1,0.4-1.5,1.4-1.4c0.7,0,1.4,0,2.2,0c4.2,0,4.1,0,4.1-4.2c0-1.3-0.1-2.1-1.8-2
		c-1.9,0.1-4.4,0.9-5.5-0.4c-1.2-1.4-0.3-3.8-0.4-5.8c0-2-0.7-4.6,0.4-5.8c1.2-1.4,3.9-0.4,6-0.5c4.8-0.1,4.7,0,4.7-4.8
		c0-1.7-0.6-1.9-2.1-1.9c-4.8,0.1-9.7,0.1-14.5,0c-1.6,0-2,0.4-2,2c0.1,7.1,0,14.2,0,21.2c0,6.9,0.1,13.8,0,20.8
		c0,1.9,0.5,2.3,2.3,2.2c3.7-0.1,7.4,0,11.1,0c5.4,0,5.3,0,5.1-5.4C330.6,344.1,330.2,343.8,329,343.8z"/>
</g>
<path fill="#009D37" d="M262,15c31.7,0,62.5,6.2,91.5,18.5c28,11.8,53.1,28.8,74.7,50.4s38.5,46.7,50.4,74.7
	c12.2,29,18.5,59.7,18.5,91.5s-6.2,62.5-18.5,91.5c-11.8,28-28.8,53.1-50.4,74.7c-21.6,21.6-46.7,38.5-74.7,50.4
	c-29,12.2-59.7,18.5-91.5,18.5s-62.5-6.2-91.5-18.5c-28-11.8-53.1-28.8-74.7-50.4s-38.5-46.7-50.4-74.7
	c-12.2-29-18.5-59.7-18.5-91.5s6.2-62.5,18.5-91.5c11.8-28,28.8-53.1,50.4-74.7s46.7-38.5,74.7-50.4C199.5,21.2,230.3,15,262,15
	 M262-6C120.6-6,6,108.6,6,250s114.6,256,256,256s256-114.6,256-256S403.4-6,262-6L262-6z"/>
</svg>
