<?xml version="1.0" encoding="utf-8"?>
<!-- Generator: Adobe Illustrator 19.0.0, SVG Export Plug-In . SVG Version: 6.00 Build 0)  -->
<svg version="1.1" id="Layer_1" xmlns="http://www.w3.org/2000/svg" xmlns:xlink="http://www.w3.org/1999/xlink" x="0px" y="0px"
	 viewBox="2 -6 688 512" enable-background="new 2 -6 688 512" xml:space="preserve">
<path fill="#D0E86D" d="M288.3,482.4c0-16.5,1.4-48.7,8.7-81.7c8-35.9,24-81.7,55.4-131.5c16.1,6.8,49.2,18.3,89.1,18.3
	c25.4,0,53.6-4.6,81.8-18.3C598.2,233.4,649.4,147,675.1,13c0.8-4-0.3-8.2-2.7-11.3c-2.5-3.3-6.3-5.2-10.2-5.5
	C509.5-14.3,406.7,14.2,356.6,81c-47.7,63.7-31.6,140.9-24.3,166.8c-24.8,38.1-41.1,74.3-51.8,106.3c-10.6-29.5-27.7-51.6-46.9-68.1
	c0-19-3.8-64.4-40-97.2c-37.9-34.6-98.5-44.1-180.2-28c-4,0.8-7.5,3.3-9.5,6.7c-2,3.5-2.5,7.8-1.2,11.6
	c28.8,88.5,68.9,140.1,118.8,153.3c8.9,2.3,17.5,3.3,25.6,3.3c32.2,0,58.7-15.3,72-24.7c29.1,27.4,43.9,64.7,43.9,111.2
	c0,1.1,0.1,2,0.4,3.1c-3.8,26.9-4.4,49.6-3.5,66.3C261,513,288.3,506,288.3,482.4z M379.4,98.1c4.6-6.1,9.8-11.9,15.4-17.2l-40.1,76
	l6.8,50.7c-2.3,3-4.6,5.9-6.8,8.7C350,185.9,349.4,138,379.4,98.1z M35.2,185.9c1.8-0.3,3.5-0.5,5.2-0.8l35.1,79.7
	C60.5,244.8,47,218.5,35.2,185.9z"/>
<path fill="#009D37" d="M303.2,482.4c0-16.4,1.4-48.7,8.7-81.7c8.2-35.9,24.1-81.7,55.4-131.5c16.1,6.8,49.2,18.3,89.1,18.3
	c25.4,0,53.6-4.6,81.8-18.3C613.1,233.4,664.2,147,690,13c0.8-4-0.3-8.2-2.7-11.3c-2.5-3.3-6.3-5.2-10.2-5.5
	C524.4-14.5,421.7,14.2,371.5,81c-47.7,63.7-31.6,140.9-24.3,166.8c-24.8,38.1-41.1,74.3-51.8,106.3c-10.6-29.5-27.7-51.6-46.9-68.1
	c0-19-3.8-64.4-40-97.2c-37.9-34.6-98.5-44.1-180.2-28c-4,0.8-7.5,3.3-9.5,6.7c-2,3.5-2.5,7.8-1.2,11.6
	c28.8,88.5,68.9,140.1,118.8,153.3c8.9,2.3,17.5,3.3,25.6,3.3c32.2,0,58.7-15.3,72-24.7c29.1,27.4,43.9,64.7,43.9,111.2
	c0,1.1,0.1,2,0.4,3.1c-3.8,26.9-3.4,46.9-3.5,66.3C274.7,513.5,303.2,510.4,303.2,482.4z M394.3,98.1
	c42.3-56.3,131.2-81.4,264.6-74.5c-24.7,115.5-69.3,189.6-132.7,220.1c-57.6,27.7-116.8,11.3-142.7,1.5c22.6-31.5,51.6-64,88.7-96.2
	c5.9-5.2,6.5-14,1.4-20.1c-5.2-5.9-14-6.5-20.1-1.4c-34.1,29.6-61.8,59.6-84,88.9C364.8,185.9,364.3,138,394.3,98.1z M134.9,266
	c0.4,0,36.3,3.5,72.2,24.7c1.1,0.7,2.2,1.4,3.4,2.2c-14.7,8.9-39.6,19.4-66.6,12.1C107,295.2,74.7,254.1,50,185.8
	c63.8-10.1,110.6-2.2,139.3,23.7c18.4,16.6,25.9,38.2,28.9,55.1c-40.6-22.9-79.9-27-80.7-27c-7.8-0.7-14.7,5-15.4,12.8
	C121.2,258.3,127.1,265.3,134.9,266z"/>
</svg>
