<?xml version="1.0" encoding="utf-8"?>
<!-- Generator: Adobe Illustrator 19.0.0, SVG Export Plug-In . SVG Version: 6.00 Build 0)  -->
<svg version="1.1" id="Layer_1" xmlns="http://www.w3.org/2000/svg" xmlns:xlink="http://www.w3.org/1999/xlink" x="0px" y="0px"
	 viewBox="6 -6 512 512" enable-background="new 6 -6 512 512" xml:space="preserve">
<g>
	<g>
		<path fill="#D0E86D" d="M489.4,486h-21.9V167.5V155l-3.2-0.1c-4.5-8.5-13.5-14.3-23.7-14.3h-49c-14.8,0-26.9,12.1-26.9,26.9V486
			H309V311.8c0-14.8-12.1-26.9-26.9-26.9h-49c-14.8,0-26.9,12.1-26.9,26.9V486h-55l-0.7-13.9v-76.3c0-14.8-12.1-26.9-26.9-26.9h-49
			c-14.8,0-26.9,12.1-26.9,26.9V486H24.6c-5.5,0-10,4.5-10,10s4.5,10,10,10h464.8c5.5,0,10-4.5,10-10S494.9,486,489.4,486z
			 M67.7,395.8c0-2.4,1.2-4.5,3.1-5.7L67.9,486h-0.2V395.8z M289,486h-62.8V311.8c0-3.8,3.1-6.9,6.9-6.9h49c3.8,0,6.9,3.1,6.9,6.9
			L289,486L289,486z M384.7,167.5c0-2.2,1.1-4.2,2.7-5.5l-2.7,324h-0.1V167.5H384.7z"/>
		<path fill="#D0E86D" d="M110.3,272.4c2.6,0,5.1-1,7.1-2.9L290.1,96.8l37.3,37.3c3.9,3.9,10.2,3.9,14.1,0l106-106V62
			c0,5.5,4.5,10,10,10s10-4.5,10-10V5c0-0.2,0-0.3,0-0.5c0.1-2.7-0.8-5.5-2.9-7.6s-4.9-3-7.6-2.9c-0.2,0-0.3,0-0.5,0H396
			c-5.5,0-10,4.5-10,10s4.5,10,10,10h37.4l-98.9,98.9l-37.3-37.3c-1.9-1.9-4.4-2.9-7.1-2.9s-5.2,1.1-7.1,2.9L103.3,255.3
			c-3.9,3.9-3.9,10.2,0,14.1C105.2,271.4,107.8,272.4,110.3,272.4z"/>
		<circle fill="#D0E86D" cx="76.6" cy="297.3" r="10"/>
	</g>
</g>
<g>
	<g>
		<path fill="#009D37" d="M499.4,486h-21.9V167.5c0-14.8-12.1-26.9-26.9-26.9h-49c-14.8,0-26.9,12.1-26.9,26.9V486H319V311.8
			c0-14.8-12.1-26.9-26.9-26.9h-49c-14.8,0-26.9,12.1-26.9,26.9V486h-55.7v-90.2c0-14.8-12.1-26.9-26.9-26.9h-49
			c-14.8,0-26.9,12.1-26.9,26.9V486H34.6c-5.5,0-10,4.5-10,10s4.5,10,10,10h464.8c5.5,0,10-4.5,10-10S504.9,486,499.4,486z
			 M140.5,486H77.7v-90.2c0-3.8,3.1-6.9,6.9-6.9h49c3.8,0,6.9,3.1,6.9,6.9V486z M299,486h-62.8V311.8c0-3.8,3.1-6.9,6.9-6.9h49
			c3.8,0,6.9,3.1,6.9,6.9L299,486L299,486z M457.5,486h-62.8V167.5c0-3.8,3.1-6.9,6.9-6.9h49c3.8,0,6.9,3.1,6.9,6.9V486z"/>
		<path fill="#009D37" d="M120.3,272.4c2.6,0,5.1-1,7.1-2.9L300.1,96.8l37.3,37.3c3.9,3.9,10.2,3.9,14.1,0l106-106V62
			c0,5.5,4.5,10,10,10s10-4.5,10-10V5c0-0.2,0-0.3,0-0.5c0.1-2.7-0.8-5.5-2.9-7.6s-4.9-3-7.6-2.9c-0.2,0-0.3,0-0.5,0H406
			c-5.5,0-10,4.5-10,10s4.5,10,10,10h37.4l-98.9,98.9l-37.3-37.3c-1.9-1.9-4.4-2.9-7.1-2.9s-5.2,1.1-7.1,2.9L113.3,255.3
			c-3.9,3.9-3.9,10.2,0,14.1C115.2,271.4,117.8,272.4,120.3,272.4z"/>
		<circle fill="#009D37" cx="86.6" cy="297.3" r="10"/>
	</g>
</g>
</svg>
