<?xml version="1.0" encoding="utf-8"?>
<!-- Generator: Adobe Illustrator 19.0.0, SVG Export Plug-In . SVG Version: 6.00 Build 0)  -->
<svg version="1.1" id="Слой_1" xmlns="http://www.w3.org/2000/svg" xmlns:xlink="http://www.w3.org/1999/xlink" x="0px" y="0px"
	 viewBox="0 0 522.4 323" enable-background="new 0 0 522.4 323" xml:space="preserve">
<path fill-rule="evenodd" clip-rule="evenodd" fill="#009D37" d="M247.8,53.5c18.3,0,23.8,8.6,23.8,18.7c0,13.2-11.5,19.8-24.6,19.8
	h-14.7V53.8C238.4,53.7,243.6,53.5,247.8,53.5z"/>
<path fill-rule="evenodd" clip-rule="evenodd" fill="#0064AD" d="M209.8,64.1C194,79.1,179,95.7,163,112.7
	c-14.4,15.3-26.4,30.6-40.8,44c-13.4,12.5-28.7,25.9-49.3,35.7C47,204.7,30.8,203.7,0,204.5c7.7,5.4,43.4,12.1,55.8,13.8
	c42.2,5.7,80,2.5,117.4-15.9c23.5-9.3,61.5-37.1,94.2-63.2L248.1,113h-15.8v48h-22.5V64.1z"/>
<path fill-rule="evenodd" clip-rule="evenodd" fill="#009D37" d="M317.1,98.3c8.1-6.9,16.6-14.2,18.6-15.9
	c32.7-27,76.2-63.4,123.1-65.5c-7.2-5.3-57.4-13.9-70.5-15.2c-28-2.9-51.5-2.2-77.6,4.1c-23.8,5.8-43.7,15-61.6,26.7
	c34.8,0.1,46.3,17.5,46.3,39.6c0,22-14.1,33-24.7,36.7l13.2,17.3C297.1,115.2,308.7,105.4,317.1,98.3z"/>
<path fill-rule="evenodd" clip-rule="evenodd" fill="#0064AD" d="M350.8,213.7c23.1-23.8,35.9-41.5,48.6-62.7
	c20-33.3,37.2-71.6,63.9-100c7.3-7.8,15.3-14.6,26.2-20.9c7-4.1,24.1-11.7,32.9-12.6c-14.8-5-54.3,1.9-68.4,6.3
	c-21.4,6.8-35,14.9-50.1,26.3c-26.4,20-53.7,44.8-81.9,69.3c9.9,2.1,18.2,6.5,23.6,12.5l-12.1,16.9c-6.2-6-12.5-9.5-22.7-9.5
	c-11.2,0-18,5.7-18,14.1C292.8,179.8,350.4,171.6,350.8,213.7z"/>
<path fill-rule="evenodd" clip-rule="evenodd" fill="#009D37" d="M72.8,227.2c4.2,3.7,24,13.5,30.6,16.4
	c63.7,27.6,121.3,42.6,188.8,10.7c2.6-1.3,5.5-2.7,8.4-4.2c-14.5-1.8-29.3-8.6-34.6-19.7l12.8-15.4c7.5,9.7,19.6,14.5,29.5,14.5
	c10.6,0,18.7-5.3,18.7-15c0-23.4-49.6-19.8-57.1-52.2c-31.7,24-64.5,44.1-98.4,53.8c-22,6.3-48.1,10.9-71.6,11.5
	C90.7,227.9,81.7,227,72.8,227.2z"/>
<path fill-rule="evenodd" clip-rule="evenodd" fill="#706F6F" d="M161.6,309.1l2.1-10.4l4.2,0.9l5.9,12.1l3.9,0.8l-6.4-12.8
	c3-0.2,6.3-2.2,7.2-6.2c0.9-4.2-0.6-8.2-7.7-9.6c-0.7-0.2-5.6-1.1-7-1.4l-5.3,26.1L161.6,309.1L161.6,309.1z M169.9,286.6
	c4.6,0.9,5.7,3.4,5.1,6c-0.6,3.1-3.9,4.4-6.9,3.7l-3.8-0.8l2-9.7C167.5,286.2,169.1,286.5,169.9,286.6L169.9,286.6z M193.5,310.1
	l0.6,2.5c-1.9,1.3-4.4,1.7-6.7,1.4c-5.5-0.7-8.6-4.7-8-10c0.6-4.9,4.3-8.5,9.9-7.8c4.4,0.6,7.5,4.1,6.9,8.8c-0.1,0.8-0.3,1.5-0.4,2
	l-13-1.7c-0.1,3.2,2,5.4,5.3,5.8C190.2,311.5,192.3,311,193.5,310.1L193.5,310.1z M188.9,299c-3.1-0.4-5.3,1.3-6,3.8l10.3,1.3
	C193.4,301.4,191.8,299.4,188.9,299L188.9,299z M196.5,317.2c-0.2,3.7,3.5,5.6,8.4,5.8c5,0.2,8.8-1.4,8.9-5c0.2-3.7-3.5-5.7-8.4-5.9
	c-0.3,0-0.7,0-1,0c-0.2-0.3-0.3-0.7-0.3-1.2c0-0.3,0.1-0.6,0.2-0.9c0.4,0.1,0.8,0.1,1.1,0.1c4.2,0.2,7.1-2.4,7.3-5.8
	c0-1.1-0.2-2.1-0.7-3l3.3-0.6l0-2.5l-5.1,1c-1.1-0.9-2.6-1.4-4.3-1.5c-4.3-0.2-7.1,2.5-7.3,5.9c-0.1,2.5,1.2,4.7,3.6,5.8
	c-0.3,0.4-0.5,0.9-0.5,1.4c0,0.5,0.1,1,0.4,1.4C198.9,312.8,196.6,314.4,196.5,317.2L196.5,317.2z M199.3,317.3
	c0.1-1.9,2.3-2.9,6-2.8c3.6,0.2,5.8,1.4,5.7,3.3c-0.1,1.9-2.5,2.9-6,2.7C201.5,320.4,199.3,319.2,199.3,317.3L199.3,317.3z
	 M201.6,303.7c0.1-2.1,1.8-3.7,4.3-3.6c2.5,0.1,4.1,1.9,4,4c-0.1,2.2-1.9,3.6-4.3,3.5C203.1,307.5,201.5,305.9,201.6,303.7
	L201.6,303.7z M231,310.5c-1,1.1-2.9,2-5.1,2.1c-3.3,0.2-5.8-1.6-6.2-4.8l13.1-0.7c0.1-0.5,0.1-1.2,0.1-2.1c-0.3-4.7-4-7.6-8.4-7.4
	c-5.6,0.3-8.6,4.4-8.3,9.4c0.3,5.4,4.1,8.7,9.6,8.4c2.3-0.1,4.7-1,6.3-2.6L231,310.5L231,310.5z M224.4,300.4c3-0.2,4.9,1.5,5.2,4.3
	l-10.4,0.6C219.5,302.6,221.3,300.6,224.4,300.4L224.4,300.4z M237.5,314.3l3-0.4l-1.6-12.2c0.9-1.4,2.6-2.6,4.5-2.8
	c3.2-0.4,5,1,5.5,4.6l1.2,9.2l3-0.4l-1.3-9.8c-0.7-5.3-3.6-7.1-8.1-6.5c-2.2,0.3-4.2,1.7-5.2,3.1l-0.3-2.1l-3,0.4L237.5,314.3
	L237.5,314.3z M270.3,303.9c-0.8,1.2-2.6,2.4-4.7,2.9c-3.3,0.8-6-0.6-7-3.6l12.8-3c0-0.5-0.1-1.2-0.3-2c-1.1-4.6-5.2-6.8-9.5-5.8
	c-5.5,1.3-7.7,5.8-6.6,10.7c1.2,5.3,5.5,7.9,10.9,6.6c2.2-0.5,4.5-1.8,5.7-3.6L270.3,303.9L270.3,303.9z M262.1,295.1
	c2.9-0.7,5.1,0.6,5.8,3.3l-10.1,2.4C257.6,298.1,259.1,295.8,262.1,295.1L262.1,295.1z M277.3,306.3l2.9-0.9l-3.8-11.5
	c0.2-1.4,0.8-2.8,2.6-3.4c1-0.3,1.5-0.3,2.4-0.1l0.1-3c-0.7-0.2-1.4-0.2-2.7,0.2c-2.1,0.7-2.9,2-3.4,3.5l-0.6-1.9l-2.9,0.9
	L277.3,306.3L277.3,306.3z M285.8,289.2c1-1.1,2-2.1,4-2.8c3.2-1.2,4.4,0.7,5.5,3.7c-1.4-0.4-3.1,0-4.4,0.4c-3.5,1.3-5.4,4-4.2,7.3
	c1.1,3.1,3.8,4.2,6.7,3.2c2.6-1,3.8-2.6,4.3-4.2l0.8,2.1l2.7-1l-3.6-9.9c-1.5-4.2-4-6-8.6-4.3c-2,0.7-3.7,2-4.8,3.4L285.8,289.2
	L285.8,289.2z M293.5,298.1c-1.9,0.7-3.3,0.1-3.8-1.5c-0.7-1.9,0.7-3.3,2.5-3.9c1.4-0.5,2.7-0.6,4-0.3l0.7,2
	C296.4,295.8,295.6,297.4,293.5,298.1L293.5,298.1z M302.7,289.7l-6.3-14l2.8-1.2l1.9,4.3l5.7-2.6l1.2,2.6l-5.7,2.6l3.1,6.8
	c1.1,2.5,2.5,3.5,4.5,2.6c1.1-0.5,1.7-1.3,2.1-2l1.8,1.8c-0.5,1.1-1.7,2.3-3.4,3.1C306.8,295.3,304.5,293.7,302.7,289.7L302.7,289.7
	z M318.5,289.3l2.7-1.3l-7.5-15.4l-2.7,1.3L318.5,289.3L318.5,289.3z M307.8,268.3c0.6,1.1,1.7,1.4,2.6,0.9c0.9-0.4,1.4-1.5,0.8-2.6
	c-0.5-1-1.6-1.2-2.5-0.8C307.8,266.3,307.3,267.3,307.8,268.3L307.8,268.3z M321.4,278.6c-2.7-4.3-1.7-9.5,2.9-12.4
	c4.6-2.9,9.7-1.7,12.5,2.7c2.7,4.3,1.7,9.5-2.9,12.4C329.3,284.2,324.2,283,321.4,278.6L321.4,278.6z M324.1,276.9
	c1.9,3,5.3,3.8,8.2,2c2.9-1.8,3.7-5.2,1.7-8.3c-1.9-3-5.3-3.8-8.2-2C323,270.4,322.2,273.9,324.1,276.9L324.1,276.9z M345.6,274.5
	l2.3-2l-8.1-9.3c0-1.7,0.7-3.6,2.2-4.8c2.4-2.1,4.7-1.9,7.1,0.8l6.1,7l2.3-2l-6.5-7.5c-3.5-4-6.9-3.9-10.3-1
	c-1.7,1.5-2.6,3.7-2.6,5.5l-1.4-1.6l-2.3,2L345.6,274.5L345.6,274.5z M374.4,242.5c-3.8-5.3-13.1,4-18.3-3.1
	c-2.2-3.1-1.7-7.4,2.4-10.3c2.5-1.8,5.4-2.5,7.6-2l0,3c-2-0.3-3.8,0-5.6,1.4c-2.4,1.7-3,4.1-1.6,6c3.9,5.3,12.9-4.3,18.3,3.1
	c2.6,3.5,1.1,8.1-2.8,10.9c-2.6,1.9-6.6,2.9-9.1,1.7l0.2-2.9c2.5,0.8,5.4,0,7.2-1.3C374.9,247.3,376,244.7,374.4,242.5L374.4,242.5z
	 M380.5,219.2l-2.2,2.7l5.9,9.9c0.5,0.8,1,1.6,1.5,2.3c-0.9-0.3-1.7-0.6-2.7-0.8l-11.6-3l-2.3,2.8l18.4,4.5l0.5,0.9
	c1.4,2.6,1.6,4.2,0.7,5.3c-0.4,0.5-1.1,0.8-1.6,1.1l1.2,2.2c1-0.3,2.1-0.8,2.9-1.8c1.5-1.9,1.4-4.1-1.7-9.9L380.5,219.2L380.5,219.2
	z M399.1,218.7c-2.4-2.5-7.8,5.2-12.2,0.7c-2.1-2.1-1.6-5.2,0.8-7.5c2-2,4.2-2.7,5.6-2.7l0.6,2.7c-1.4,0.1-3,0.6-4.2,1.8
	c-1.2,1.2-1.3,2.6-0.5,3.4c2.5,2.6,7.9-5.1,12.1-0.8c2.5,2.6,1.3,5.9-1.1,8.3c-2,1.9-5,2.8-6.4,2.5l-0.3-2.7c1.5,0.1,3.8-0.7,5-1.9
	C399.7,221.3,400.1,219.8,399.1,218.7L399.1,218.7z M401.5,211.9c3.4,2.8,6.2,3.1,8.7,0.2c1.2-1.5,1.7-3.1,1.7-4.3l-2.4-0.8
	c0,0.8-0.2,1.8-1,2.7c-1.4,1.7-3.1,1.4-5.2-0.4l-5.8-4.7l4-4.8l-2.2-1.8l-4,4.8l-3.7-3l-1.9,2.3L401.5,211.9L401.5,211.9z
	 M419.9,192.6l2.5,0.8c0.1,2.3-0.9,4.6-2.4,6.4c-3.5,4.3-8.6,4.8-12.7,1.4c-3.8-3.2-4.9-8.2-1.3-12.5c2.8-3.4,7.5-4.1,11.1-1.1
	c0.6,0.5,1.1,1,1.5,1.5l-8.4,10.1c2.7,1.9,5.6,1.2,7.8-1.3C419.4,196.1,420,194.1,419.9,192.6L419.9,192.6z M408.1,190.6
	c-2,2.4-1.8,5.2,0.1,7.1l6.6-8C412.5,188,410,188.3,408.1,190.6L408.1,190.6z M430.9,162.3c-3.9-2.6-6.5-1.5-8.2,1.1
	c-1.4,2.1-1.7,4.7-0.9,6.6c-1.8-0.5-3.9,0.4-5.3,2.6c-1.2,1.8-1.6,4.2-1.1,6.1l-1.8-1.2l-1.7,2.5l14.2,9.5l1.7-2.5l-10.2-6.8
	c-0.6-1.4-0.5-3.4,0.6-5c1.3-2,3.2-2.2,5-1.1l9.2,6.2l1.7-2.5l-9-6.1c-0.3-0.2-0.8-0.5-1-0.6c-0.7-1.4-0.7-3.4,0.5-5.1
	c1.4-2.1,3.2-2.3,5.5-0.7l8.6,5.8l1.7-2.5L430.9,162.3L430.9,162.3z M442,154.2c-3.2-1.4-5.3,7.8-11.1,5.2c-2.8-1.2-3.4-4.2-2.1-7.3
	c1.1-2.6,2.9-4,4.2-4.6l1.5,2.3c-1.2,0.6-2.5,1.6-3.3,3.3c-0.7,1.6-0.2,2.9,0.9,3.4c3.3,1.4,5.4-7.7,10.9-5.3c3.3,1.4,3.5,5,2.1,8.1
	c-1.1,2.5-3.5,4.5-5,4.7l-1.3-2.4c1.4-0.4,3.3-2.1,4-3.7C443.5,156.5,443.4,154.9,442,154.2z"/>
</svg>
